<svg width="58" height="58" viewBox="0 0 58 58" fill="none" xmlns="http://www.w3.org/2000/svg">
<path d="M19.1956 14.9712C17.0506 15.3744 13.8894 19.0419 15.2844 20.4369L23.8588 29.0075L15.2844 37.5781C13.5688 39.2938 18.7137 44.4331 20.4294 42.7194L29.0038 34.1488L37.5781 42.7194C39.2938 44.435 44.4369 39.29 42.7231 37.5781L34.1488 29.0075L42.7231 20.4369C44.4388 18.7212 39.2938 13.5819 37.5781 15.2956L29.0038 23.8663L20.4294 15.2956C20.105 14.975 19.6906 14.8775 19.1975 14.9712H19.1956ZM29 0.875C13.4656 0.875 0.875 13.4675 0.875 29C0.875 44.5325 13.4656 57.125 29 57.125C44.5344 57.125 57.125 44.5325 57.125 29C57.125 13.4675 44.5344 0.875 29 0.875ZM29 7.90625C40.6494 7.90625 50.0938 17.3506 50.0938 29C50.0938 40.6494 40.6494 50.0938 29 50.0938C17.3506 50.0938 7.90625 40.6494 7.90625 29C7.90813 17.3506 17.3506 7.90625 29 7.90625Z" fill="#845EC2"/>
</svg>
