<svg width="38" height="39" viewBox="0 0 38 39" fill="none" xmlns="http://www.w3.org/2000/svg">
<path d="M25.7119 19.5768L37.1419 31.0068C37.8844 31.7493 37.8844 32.9549 37.1419 33.6974L33.1088 37.7305C32.3663 38.473 31.1626 38.473 30.4182 37.7305L18.9863 26.3005L7.55443 37.7305C6.81193 38.473 5.60818 38.473 4.86568 37.7305L0.830679 33.6974C0.0881787 32.9549 0.0881787 31.7511 0.830679 31.0068L12.2626 19.5768L0.830679 8.14488C0.0881787 7.40238 0.0881787 6.19676 0.830679 5.45426L4.86755 1.42113C5.61005 0.678633 6.8138 0.678633 7.5563 1.42113L18.9863 12.853L30.4182 1.42113C31.1607 0.678633 32.3644 0.678633 33.1088 1.42113L37.1419 5.45613C37.8844 6.19863 37.8844 7.40238 37.1419 8.14676L25.7119 19.5768Z" fill="#845EC2"/>
</svg>
