<svg width="476" height="432" viewBox="0 0 476 432" fill="none" xmlns="http://www.w3.org/2000/svg">
<path d="M17 370.468V149.55C17 125.149 36.7816 105.367 61.1835 105.367H72.2293C86.1363 105.367 99.2319 98.8192 107.576 87.6936L156.62 22.302C159.123 18.9644 163.052 17 167.224 17H308.611C312.784 17 316.712 18.9644 319.215 22.302L368.259 87.6936C376.603 98.8192 389.699 105.367 403.605 105.367H414.651C439.054 105.367 458.835 125.149 458.835 149.55V370.468C458.835 394.87 439.054 414.651 414.651 414.651H61.1835C36.7816 414.651 17 394.87 17 370.468Z" stroke="#845EC2" stroke-width="33.1376" stroke-linecap="round" stroke-linejoin="round"/>
<path d="M237.918 326.285C286.721 326.285 326.285 286.721 326.285 237.918C326.285 189.115 286.721 149.551 237.918 149.551C189.114 149.551 149.551 189.115 149.551 237.918C149.551 286.721 189.114 326.285 237.918 326.285Z" stroke="#845EC2" stroke-width="33.1376" stroke-linecap="round" stroke-linejoin="round"/>
</svg>
