<svg width="60" height="60" viewBox="0 0 60 60" fill="none" xmlns="http://www.w3.org/2000/svg">
<path d="M30.0008 19.3702C35.3398 19.3702 39.6834 15.0254 39.6834 9.68471C39.6834 4.34445 35.3398 0 30.0008 0C24.6605 0 20.3159 4.34445 20.3159 9.68471C20.3159 15.0254 24.6605 19.3702 30.0008 19.3702Z" fill="#845EC2"/>
<path d="M52.7077 37.6966H52.444L40.4906 22.3075C39.7293 21.214 38.4794 20.5615 37.1448 20.5615C37.1203 20.5615 22.8902 20.5615 22.8544 20.5615C21.5199 20.5615 20.2698 21.214 19.5088 22.3074L7.555 37.6966H7.29216C5.78433 37.6966 4.55762 38.9233 4.55762 40.4311V57.2656C4.55762 58.7735 5.78433 60.0002 7.29216 60.0002H52.7077C54.2155 60.0002 55.4422 58.7735 55.4422 57.2656V40.4311C55.4421 38.9233 54.2155 37.6966 52.7077 37.6966ZM20.0758 34.5911V37.6966H17.5848L20.0758 34.5911ZM39.9235 34.5904L42.4147 37.6966H39.9235V34.5904ZM52.351 56.9089H7.64889V40.7878H52.351V56.9089Z" fill="#845EC2"/>
<path d="M20.9606 55.0897C22.0122 55.0897 23.033 54.7735 23.9125 54.1752C24.2986 53.9126 24.3986 53.3868 24.1361 53.0009C23.8735 52.6147 23.3478 52.5151 22.9618 52.7772C22.3636 53.184 21.6716 53.3991 20.9605 53.3991C18.8863 53.3991 17.1989 51.579 17.1989 49.3416C17.1989 47.1043 18.8863 45.2843 20.9605 45.2843C21.6118 45.2843 22.2535 45.4668 22.816 45.8119C23.2138 46.0559 23.7344 45.9314 23.9786 45.5335C24.2227 45.1356 24.0981 44.6152 23.7002 44.3711C22.8714 43.8625 21.9241 43.5938 20.9605 43.5938C17.9542 43.5938 15.5083 46.1724 15.5083 49.3418C15.5083 52.5111 17.9544 55.0897 20.9606 55.0897Z" fill="#845EC2"/>
<path d="M29.8792 55.0895C30.9308 55.0895 31.9516 54.7733 32.8311 54.1751C33.2172 53.9125 33.3172 53.3867 33.0547 53.0008C32.7922 52.6145 32.2663 52.5149 31.8804 52.7771C31.2822 53.1839 30.5902 53.399 29.8791 53.399C28.0737 53.399 26.5618 52.0197 26.2002 50.1869H31.9077C32.3745 50.1869 32.7529 49.8085 32.7529 49.3416C32.7529 48.8748 32.3745 48.4964 31.9077 48.4964H26.2002C26.5618 46.6635 28.0737 45.2843 29.8791 45.2843C30.5304 45.2843 31.172 45.4668 31.7345 45.8119C32.1324 46.056 32.6529 45.9314 32.897 45.5335C33.1412 45.1357 33.0166 44.6152 32.6186 44.3711C31.79 43.8625 30.8425 43.5938 29.8789 43.5938C26.8727 43.5938 24.4268 46.1724 24.4268 49.3418C24.4268 52.5111 26.8728 55.0895 29.8792 55.0895Z" fill="#845EC2"/>
<path d="M39.0391 55.0898C42.0453 55.0898 44.4911 52.5112 44.4911 49.3418C44.4911 46.1723 42.0453 43.5938 39.0391 43.5938C36.0328 43.5938 33.5869 46.1724 33.5869 49.3418C33.5869 52.5111 36.0328 55.0898 39.0391 55.0898ZM39.0391 45.2844C41.1131 45.2844 42.8005 47.1045 42.8005 49.3418C42.8005 51.5792 41.1131 53.3992 39.0391 53.3992C36.9649 53.3992 35.2775 51.5792 35.2775 49.3418C35.2775 47.1045 36.9649 45.2844 39.0391 45.2844Z" fill="#845EC2"/>
</svg>
