<svg width="215" height="175" viewBox="0 0 215 175" fill="none" xmlns="http://www.w3.org/2000/svg">
<path d="M157.019 174.465H57.3242C13.359 174.465 0 161.106 0 117.141V112.156C0 108.069 3.38961 104.679 7.47708 104.679C17.0477 104.679 24.9236 96.8032 24.9236 87.2326C24.9236 77.6619 17.0477 69.786 7.47708 69.786C3.38961 69.786 0 66.3964 0 62.309V57.3243C0 13.359 13.359 0 57.3242 0H157.019C200.984 0 214.343 13.359 214.343 57.3243V67.2937C214.343 71.3812 210.953 74.7708 206.866 74.7708C197.295 74.7708 189.419 82.6466 189.419 92.2173C189.419 101.788 197.295 109.664 206.866 109.664C210.953 109.664 214.343 113.053 214.343 117.141C214.343 161.106 200.984 174.465 157.019 174.465ZM14.9542 118.736C15.1535 153.031 22.2318 159.511 57.3242 159.511H157.019C190.317 159.511 198.392 153.629 199.289 123.721C185.033 120.331 174.465 107.471 174.465 92.2173C174.465 76.964 185.132 64.1035 199.389 60.7139V57.3243C199.389 21.7334 192.709 14.9542 157.019 14.9542H57.3242C22.2318 14.9542 15.1535 21.4343 14.9542 55.7291C29.2104 59.1188 39.8777 71.9793 39.8777 87.2326C39.8777 102.486 29.2104 115.346 14.9542 118.736Z" fill="#845EC2"/>
<path d="M87.2329 39.8777C83.1455 39.8777 79.7559 36.4881 79.7559 32.4007V7.47708C79.7559 3.38961 83.1455 0 87.2329 0C91.3204 0 94.71 3.38961 94.71 7.47708V32.4007C94.71 36.4881 91.3204 39.8777 87.2329 39.8777Z" fill="#845EC2"/>
<path d="M87.2329 112.955C83.1455 112.955 79.7559 109.566 79.7559 105.478V68.8906C79.7559 64.8027 83.1455 61.4131 87.2329 61.4131C91.3204 61.4131 94.71 64.8027 94.71 68.8906V105.478C94.71 109.666 91.3204 112.955 87.2329 112.955Z" fill="#845EC2"/>
<path d="M87.2329 174.465C83.1455 174.465 79.7559 171.076 79.7559 166.988V142.064C79.7559 137.977 83.1455 134.587 87.2329 134.587C91.3204 134.587 94.71 137.977 94.71 142.064V166.988C94.71 171.076 91.3204 174.465 87.2329 174.465Z" fill="#845EC2"/>
</svg>
