<svg width="215" height="215" viewBox="0 0 215 215" fill="none" xmlns="http://www.w3.org/2000/svg">
<path d="M206.866 199.388H196.896V137.079C196.896 87.5313 156.72 47.3545 107.171 47.3545C57.6233 47.3545 17.4465 87.5313 17.4465 137.079V199.388H7.47708C3.38961 199.388 0 202.778 0 206.865C0 210.953 3.38961 214.343 7.47708 214.343H206.866C210.953 214.343 214.343 210.953 214.343 206.865C214.343 202.778 210.953 199.388 206.866 199.388Z" fill="#FF0000"/>
<path d="M107.171 24.9236C103.084 24.9236 99.6943 21.534 99.6943 17.4465V7.47708C99.6943 3.38961 103.084 0 107.171 0C111.259 0 114.648 3.38961 114.648 7.47708V17.4465C114.648 21.534 111.259 24.9236 107.171 24.9236Z" fill="#FF0000"/>
<path d="M37.3994 44.8762C35.5052 44.8762 33.611 44.1783 32.1156 42.6829L22.1461 32.7135C19.255 29.8224 19.255 25.037 22.1461 22.1459C25.0373 19.2548 29.8226 19.2548 32.7137 22.1459L42.6832 32.1153C45.5743 35.0065 45.5743 39.7918 42.6832 42.6829C41.1878 44.1783 39.2936 44.8762 37.3994 44.8762Z" fill="#FF0000"/>
<path d="M176.971 44.8762C175.077 44.8762 173.183 44.1783 171.688 42.6829C168.797 39.7918 168.797 35.0065 171.688 32.1153L181.657 22.1459C184.548 19.2548 189.334 19.2548 192.225 22.1459C195.116 25.037 195.116 29.8224 192.225 32.7135L182.255 42.6829C180.76 44.1783 178.866 44.8762 176.971 44.8762Z" fill="#FF0000"/>
</svg>
