<svg width="174" height="175" viewBox="0 0 174 175" fill="none" xmlns="http://www.w3.org/2000/svg">
<path d="M46.7502 43.75C47.1554 43.75 47.3579 43.75 47.5416 43.7454C53.5115 43.5941 58.7781 39.7981 60.8096 34.1823C60.8721 34.0096 60.9361 33.8174 61.0642 33.433L61.7681 31.3214C62.369 29.5188 62.6694 28.6175 63.0679 27.8522C64.6578 24.799 67.5994 22.6789 70.9987 22.1361C71.8507 22 72.8009 22 74.7012 22H98.5493C100.45 22 101.4 22 102.252 22.1361C105.651 22.6789 108.593 24.799 110.183 27.8522C110.581 28.6175 110.882 29.5188 111.483 31.3214L112.187 33.433C112.314 33.8169 112.379 34.0097 112.441 34.1823C114.472 39.7981 119.739 43.5941 125.709 43.7454C125.893 43.75 126.095 43.75 126.5 43.75" stroke="#845EC2" stroke-width="11.67"/>
<path d="M148.251 52.75H25" stroke="#845EC2" stroke-width="11.67" stroke-linecap="round"/>
<path d="M136.167 61.75L132.832 111.768C131.549 131.017 130.907 140.641 124.636 146.508C118.365 152.375 108.719 152.375 89.4285 152.375H83.8221C64.5309 152.375 54.8855 152.375 48.6142 146.508C42.3429 140.641 41.7013 131.017 40.4181 111.768L37.0835 61.75" stroke="#845EC2" stroke-width="11.67" stroke-linecap="round"/>
<path d="M68.5784 79.9219L72.1878 116.25" stroke="#845EC2" stroke-width="11.67" stroke-linecap="round"/>
<path d="M104.672 79.9219L101.063 116.25" stroke="#845EC2" stroke-width="11.67" stroke-linecap="round"/>
</svg>
