<svg width="156" height="156" viewBox="0 0 156 156" fill="none" xmlns="http://www.w3.org/2000/svg">
<path d="M98.3461 155.579H55.4315C16.5937 155.579 0 138.986 0 100.148V57.2332C0 18.3954 16.5937 1.80176 55.4315 1.80176H69.7364C72.6689 1.80176 75.1007 4.23359 75.1007 7.16609C75.1007 10.0986 72.6689 12.5304 69.7364 12.5304H55.4315C22.4587 12.5304 10.7287 24.2604 10.7287 57.2332V100.148C10.7287 133.121 22.4587 144.851 55.4315 144.851H98.3461C131.319 144.851 143.049 133.121 143.049 100.148V85.843C143.049 82.9105 145.481 80.4787 148.413 80.4787C151.346 80.4787 153.778 82.9105 153.778 85.843V100.148C153.778 138.986 137.184 155.579 98.3461 155.579Z" fill="#845EC2"/>
<path d="M51.8501 119.393C47.4871 119.393 43.4818 117.819 40.5493 114.958C37.0446 111.453 35.5425 106.375 36.3293 101.011L39.4049 79.4819C39.9771 75.3334 42.695 69.9691 45.6275 67.0366L101.988 10.675C116.222 -3.55834 130.67 -3.55834 144.903 10.675C152.699 18.4712 156.204 26.4104 155.489 34.3496C154.845 40.7868 151.412 47.081 144.903 53.5182L88.5418 109.88C85.6093 112.812 80.245 115.53 76.0966 116.102L54.5681 119.178C53.6382 119.393 52.7084 119.393 51.8501 119.393ZM109.57 18.2566L53.2091 74.6182C51.8501 75.9772 50.2766 79.1242 49.9905 80.9839L46.9149 102.513C46.6288 104.587 47.058 106.304 48.1309 107.376C49.2037 108.449 50.9203 108.878 52.9945 108.592L74.523 105.517C76.3827 105.231 79.6013 103.657 80.8887 102.298L137.25 45.9366C141.899 41.2875 144.331 37.1391 144.689 33.2768C145.118 28.6277 142.686 23.6925 137.25 18.1851C125.806 6.74119 117.938 9.95979 109.57 18.2566Z" fill="#845EC2"/>
<path d="M133.033 63.1717C132.532 63.1717 132.031 63.1002 131.602 62.9572C112.791 57.6644 97.8427 42.7157 92.5499 23.9048C91.7631 21.0438 93.4082 18.1113 96.2692 17.253C99.1302 16.4663 102.063 18.1113 102.849 20.9723C107.141 36.207 119.229 48.2947 134.463 52.5861C137.324 53.3729 138.969 56.3769 138.183 59.2379C137.539 61.6697 135.393 63.1717 133.033 63.1717Z" fill="#845EC2"/>
</svg>
