<svg width="60" height="60" viewBox="0 0 60 60" fill="none" xmlns="http://www.w3.org/2000/svg">
<g clip-path="url(#clip0_2808_2)">
<path fill-rule="evenodd" clip-rule="evenodd" d="M44.209 19.3649C45.2979 18.9987 46.4453 19.5797 47.2021 20.4879H56.2158C56.2485 20.4879 56.2809 20.4944 56.3111 20.5069C56.3413 20.5194 56.3688 20.5377 56.3919 20.5609C56.415 20.584 56.4334 20.6114 56.4459 20.6417C56.4584 20.6719 56.4648 20.7043 56.4648 20.737V23.11C56.4648 23.1427 56.4584 23.1751 56.4459 23.2053C56.4334 23.2355 56.415 23.263 56.3919 23.2861C56.3688 23.3092 56.3413 23.3276 56.3111 23.3401C56.2809 23.3526 56.2485 23.359 56.2158 23.359H54.6387V31.2643H52.8174V23.359H47.9053C47.651 23.9865 47.2569 24.5476 46.7529 24.9996V31.2643H44.9219V26.2789C43.6634 26.9272 42.3576 27.4789 41.0156 27.9293C39.5773 28.465 38.1102 28.9198 36.6211 29.2916C35.2788 29.5887 33.8856 29.5667 32.5533 29.2275C31.2211 28.8883 29.987 28.2413 28.9502 27.3385C28.3508 26.8269 27.7818 26.2807 27.2461 25.7028L27.0801 25.527L25.6152 34.194C26.7405 34.9502 27.915 35.6304 29.1309 36.2301C32.9297 38.0026 36.0547 39.4674 36.7236 45.4342C36.8457 46.4791 36.792 52.6022 36.7236 55.61H41.9922C41.8882 55.5261 41.8046 55.4197 41.748 55.2987C41.6913 55.1777 41.6629 55.0454 41.665 54.9118V53.9889C41.0533 53.9812 40.4691 53.7331 40.0387 53.2982C39.6084 52.8633 39.3665 52.2765 39.3652 51.6647V34.0866C39.3678 33.4709 39.6135 32.8812 40.0488 32.4459C40.4841 32.0106 41.0738 31.7649 41.6895 31.7623H42.2217C42.2169 31.7996 42.2169 31.8374 42.2217 31.8746L42.8027 34.0914C42.9444 34.7087 43.2458 35.2778 43.6768 35.7418C43.8776 35.9396 44.1168 36.0941 44.3797 36.1957C44.6425 36.2973 44.9235 36.3439 45.2051 36.3327H47.5342V37.5778C47.5342 37.778 48.4717 37.9342 48.667 37.9342H51.7578C51.8044 37.9349 51.8506 37.9262 51.8938 37.9089C51.9371 37.8915 51.9764 37.8657 52.0096 37.833C52.0427 37.8003 52.0691 37.7613 52.087 37.7183C52.105 37.6754 52.1143 37.6292 52.1143 37.5827V36.3327H54.5557C54.843 36.3349 55.1279 36.279 55.3931 36.1682C55.6583 36.0575 55.8983 35.8941 56.0986 35.6881C56.5308 35.2259 56.8222 34.65 56.9385 34.028L57.4268 31.8405C57.4315 31.8015 57.4315 31.7622 57.4268 31.7233H57.6758C58.2914 31.7259 58.8811 31.9715 59.3164 32.4069C59.7517 32.8422 59.9974 33.4319 60 34.0475V51.65C59.9988 52.2619 59.7568 52.8486 59.3265 53.2835C58.8962 53.7185 58.312 53.9666 57.7002 53.9743V54.8873C57.7023 55.0209 57.674 55.1533 57.6173 55.2743C57.5606 55.3952 57.4771 55.5017 57.373 55.5856H60V59.2868H0V55.5856H9.68262C10.3711 53.735 11.0791 51.7623 11.7725 49.7799C13.2031 45.6832 14.5752 41.4791 15.5811 38.1393C14.9484 37.3911 14.421 36.5598 14.0137 35.6686C13.547 34.6559 13.3972 33.5257 13.584 32.4264L15.6982 21.7721C14.9414 21.733 14.0674 21.5084 13.3545 21.8209C11.9727 22.4264 9.93652 25.0045 8.73047 26.2155L7.11426 27.8512C5.86914 29.111 5.03906 30.5075 3.13477 30.3561C0.771484 30.1705 -0.917969 27.5436 0.74707 25.527L4.47266 21.7575C6.26465 19.9362 7.96875 17.7926 10.1807 16.5426C11.958 15.5368 13.8916 14.8483 17.0898 14.985C18.2617 14.985 19.502 15.1168 20.6738 15.2291L22.041 15.3463C27.4121 15.693 29.9121 18.5202 31.8652 20.7174C32.7295 21.694 33.4717 22.5241 34.2773 22.9098C34.6582 23.0905 35.2539 22.8366 35.9326 22.5534L40.8984 20.7077L44.209 19.3795V19.3649ZM29.8584 55.6051C29.9268 52.2164 30 47.4362 29.9463 46.5133C29.9023 45.8541 29.458 44.111 28.7646 43.7936C27.8349 43.3909 26.8847 43.0372 25.918 42.734C24.5752 42.2897 23.4766 41.8405 22.1484 41.4743C21.1719 44.6871 19.8633 48.5641 18.4521 52.2604L17.1191 55.6051H29.8584ZM55.6738 55.6051H43.6963C43.8011 55.522 43.8853 55.4157 43.9421 55.2945C43.9988 55.1733 44.0267 55.0406 44.0234 54.9069V53.984H55.3467V54.8873C55.3434 55.0211 55.3713 55.1538 55.4281 55.275C55.4848 55.3961 55.569 55.5025 55.6738 55.5856V55.6051ZM43.4131 49.6334C43.2991 49.6334 43.1898 49.5882 43.1092 49.5076C43.0287 49.427 42.9834 49.3177 42.9834 49.2038C42.9834 49.0898 43.0287 48.9805 43.1092 48.8999C43.1898 48.8193 43.2991 48.7741 43.4131 48.7741H56.0205C56.1345 48.7741 56.2438 48.8193 56.3243 48.8999C56.4049 48.9805 56.4502 49.0898 56.4502 49.2038C56.4502 49.3177 56.4049 49.427 56.3243 49.5076C56.2438 49.5882 56.1345 49.6334 56.0205 49.6334H43.4131ZM43.4131 45.4782C43.2991 45.4782 43.1898 45.4329 43.1092 45.3523C43.0287 45.2717 42.9834 45.1624 42.9834 45.0485C42.9834 44.9345 43.0287 44.8252 43.1092 44.7446C43.1898 44.6641 43.2991 44.6188 43.4131 44.6188H56.0205C56.1345 44.6188 56.2438 44.6641 56.3243 44.7446C56.4049 44.8252 56.4502 44.9345 56.4502 45.0485C56.4502 45.1624 56.4049 45.2717 56.3243 45.3523C56.2438 45.4329 56.1345 45.4782 56.0205 45.4782H43.4131ZM43.4131 41.3229C43.2991 41.3229 43.1898 41.2776 43.1092 41.197C43.0287 41.1165 42.9834 41.0072 42.9834 40.8932C42.9834 40.7792 43.0287 40.6699 43.1092 40.5894C43.1898 40.5088 43.2991 40.4635 43.4131 40.4635H56.0205C56.1345 40.4635 56.2438 40.5088 56.3243 40.5894C56.4049 40.6699 56.4502 40.7792 56.4502 40.8932C56.4502 41.0072 56.4049 41.1165 56.3243 41.197C56.2438 41.2776 56.1345 41.3229 56.0205 41.3229H43.4131ZM56.4648 32.1676H43.2129L43.6523 33.8424C43.7564 34.3124 43.982 34.7468 44.3066 35.1022C44.4214 35.2237 44.56 35.3202 44.7137 35.3857C44.8675 35.4513 45.0331 35.4844 45.2002 35.483H54.5605C54.7354 35.4839 54.9087 35.4493 55.0698 35.3813C55.2309 35.3133 55.3766 35.2134 55.498 35.0875C55.8105 34.7436 56.0202 34.319 56.1035 33.862L56.4648 32.1676ZM21.8848 1.03481C23.2925 0.553113 24.8237 0.574475 26.2175 1.09525C27.6112 1.61603 28.7813 2.60399 29.5282 3.89079C30.2752 5.17758 30.5528 6.68357 30.3138 8.15213C30.0748 9.62068 29.334 10.9609 28.2175 11.9444C27.1011 12.928 25.6781 13.4939 24.1912 13.5459C22.7042 13.5978 21.2452 13.1325 20.0629 12.2293C18.8805 11.3261 18.048 10.0408 17.7071 8.59253C17.3662 7.14423 17.538 5.62254 18.1934 4.28676C18.5642 3.52836 19.0813 2.85068 19.7147 2.29262C20.3482 1.73456 21.0857 1.30711 21.8848 1.03481Z" fill="#845EC2"/>
</g>
<defs>
<clipPath id="clip0_2808_2">
<rect width="60" height="60" fill="white"/>
</clipPath>
</defs>
</svg>
