<?xml version="1.0" standalone="no"?>
<!DOCTYPE svg PUBLIC "-//W3C//DTD SVG 20010904//EN"
 "http://www.w3.org/TR/2001/REC-SVG-20010904/DTD/svg10.dtd">
<svg version="1.0" xmlns="http://www.w3.org/2000/svg"
 width="1024.000000pt" height="768.000000pt" viewBox="0 0 1024.000000 768.000000"
 preserveAspectRatio="xMidYMid meet">

<g transform="translate(0.000000,768.000000) scale(0.100000,-0.100000)"
fill="#000000" stroke="none">
<path d="M0 3840 l0 -3840 5120 0 5120 0 0 1058 0 1057 -40 23 c-34 19 -41 20
-46 8 -5 -12 -10 -13 -24 -4 -15 9 -26 8 -52 -4 -18 -9 -51 -21 -73 -28 -37
-10 -44 -9 -107 25 -51 27 -69 43 -77 67 -14 39 -14 38 2 38 17 0 42 51 29 59
-16 11 -22 43 -11 57 19 23 49 16 81 -18 16 -18 39 -37 51 -43 12 -6 26 -24
32 -40 12 -37 22 -45 59 -45 19 0 27 4 23 13 -6 17 53 40 77 31 9 -3 30 -1 46
6 l30 12 0 2704 0 2704 -5120 0 -5120 0 0 -3840z m2575 1350 c4 -6 -5 -10 -19
-10 -14 0 -26 5 -26 10 0 6 9 10 19 10 11 0 23 -4 26 -10z m-12 -37 c-7 -2
-19 -2 -25 0 -7 3 -2 5 12 5 14 0 19 -2 13 -5z m-174 -46 c-21 -18 -99 -67
-99 -63 0 7 83 65 94 66 5 0 7 -2 5 -3z m2538 -68 c19 -25 62 -33 82 -15 15
14 27 12 114 -17 77 -25 99 -37 103 -54 6 -24 37 -36 53 -20 18 18 25 -2 11
-29 -12 -21 -19 -25 -45 -20 -25 5 -27 4 -11 -5 10 -6 27 -20 38 -31 15 -15
27 -18 58 -13 43 7 81 -8 118 -48 24 -25 24 -25 3 -32 -12 -3 -24 -17 -27 -31
-8 -30 -36 -32 -64 -4 -11 11 -30 20 -41 20 -20 0 -21 -4 -15 -41 6 -35 4 -41
-14 -46 -11 -3 -20 -9 -20 -13 0 -15 91 -115 102 -112 6 2 17 -6 25 -18 17
-25 38 -27 28 -2 -4 9 -9 39 -11 65 -2 26 -6 52 -9 57 -7 12 60 24 82 15 12
-5 14 -9 6 -12 -18 -6 -16 -33 2 -33 8 0 19 17 26 43 7 23 17 48 22 55 11 14
31 17 22 2 -3 -5 -1 -10 5 -10 7 0 8 -6 0 -19 -5 -11 -10 -29 -10 -40 0 -15 6
-19 27 -18 24 2 26 -1 27 -37 1 -35 4 -40 31 -47 23 -7 34 -4 51 12 25 24 62
22 78 -4 8 -13 7 -24 -6 -48 -21 -36 -23 -69 -5 -69 6 0 4 -5 -5 -11 -11 -6
-18 -22 -18 -40 0 -29 2 -30 29 -24 33 7 52 -10 21 -20 -22 -7 -27 -30 -9 -41
6 -3 22 0 36 7 23 13 27 11 53 -21 21 -26 27 -42 23 -62 -4 -22 -1 -30 21 -39
27 -13 56 0 56 26 0 21 31 26 57 10 14 -9 34 -18 46 -20 31 -7 37 -20 41 -88
1 -11 15 -24 33 -32 29 -12 35 -12 57 6 41 32 113 20 99 -18 -3 -8 4 -21 16
-29 11 -8 21 -22 21 -30 0 -8 5 -14 10 -14 6 0 10 -11 10 -24 0 -16 10 -32 28
-45 26 -18 30 -18 60 -4 18 9 32 19 32 24 0 5 6 9 13 9 6 0 21 17 32 38 18 33
25 37 60 39 25 1 50 -6 67 -17 18 -14 37 -18 63 -15 l37 5 -20 -34 c-21 -35
-32 -99 -19 -112 15 -16 5 -24 -28 -24 -36 0 -36 0 -29 35 7 39 3 43 -20 19
-12 -11 -13 -20 -6 -34 10 -19 -2 -36 -19 -26 -4 3 -16 0 -26 -8 -15 -11 -16
-16 -5 -35 15 -29 10 -34 -23 -18 -15 6 -31 24 -36 40 -7 17 -17 27 -30 27
-12 0 -21 -5 -21 -10 0 -6 -11 -8 -25 -4 -19 5 -25 2 -25 -10 0 -10 8 -16 21
-16 17 0 20 -4 16 -22 -8 -27 27 -68 57 -68 57 -1 88 -40 89 -112 0 -16 3 -28
7 -28 3 0 31 -18 60 -40 62 -46 82 -49 99 -16 11 20 11 29 -4 54 -23 38 -14
67 18 57 12 -4 40 -10 62 -12 47 -6 85 -31 105 -67 7 -14 22 -26 32 -26 11 0
27 -15 39 -34 32 -54 65 -60 138 -25 57 27 81 30 81 9 0 -4 -17 -15 -39 -23
-39 -16 -58 -41 -40 -53 6 -3 34 6 63 20 61 30 70 32 63 12 -4 -10 2 -16 16
-18 22 -4 24 -9 12 -40 -5 -12 -1 -20 11 -24 40 -15 44 -24 22 -60 -11 -19
-26 -34 -34 -34 -7 0 -24 -11 -37 -25 -13 -14 -36 -29 -53 -34 -28 -8 -29 -10
-26 -62 2 -40 8 -59 24 -72 12 -10 22 -27 23 -39 1 -12 11 -25 23 -29 19 -7
20 -5 15 26 -7 42 2 69 19 58 7 -4 22 -6 33 -5 11 2 38 -4 59 -13 30 -13 35
-19 26 -30 -7 -8 -7 -16 -1 -19 5 -3 7 -15 4 -26 -3 -11 -1 -20 3 -20 19 0 33
16 40 44 6 25 3 33 -21 51 -26 22 -26 23 -11 47 19 30 13 38 -30 38 -33 0 -35
2 -48 63 -9 39 9 67 43 67 16 0 31 -7 35 -15 3 -8 17 -15 31 -15 28 0 32 -15
10 -44 -9 -11 -11 -24 -6 -30 4 -6 11 -24 15 -40 l7 -29 20 34 c12 19 28 39
36 46 27 21 34 3 12 -28 -26 -36 -15 -54 12 -20 17 21 19 21 20 5 1 -11 0 -27
-1 -38 -1 -16 3 -17 39 -11 32 5 50 2 81 -14 23 -12 48 -21 56 -21 9 0 14 -6
11 -12 -2 -8 -24 -13 -58 -14 -30 0 -60 -4 -67 -8 -20 -12 -14 -36 13 -48 31
-14 33 -32 3 -22 -59 18 -91 36 -79 43 9 6 5 14 -15 30 -31 24 -44 27 -44 8 0
-8 -19 -29 -41 -47 -37 -29 -40 -35 -25 -45 9 -7 16 -16 16 -21 0 -5 4 -15 9
-23 7 -11 19 -6 56 23 26 20 52 36 56 36 18 0 65 -26 77 -42 7 -9 20 -24 29
-33 20 -20 24 -110 6 -133 -9 -12 -12 -13 -13 -3 0 9 -9 12 -30 9 -19 -3 -29
-1 -27 6 2 6 13 12 25 14 29 4 28 30 -3 66 -14 16 -25 33 -25 38 0 18 -21 6
-30 -17 -10 -25 -34 -33 -45 -15 -10 16 -25 1 -25 -24 0 -27 18 -46 42 -46 21
0 23 -10 6 -32 -12 -15 -18 -13 -57 21 -31 28 -44 48 -47 72 -2 18 -8 37 -12
41 -15 15 -42 -3 -42 -28 0 -24 0 -24 -77 17 -43 23 -85 48 -94 55 -18 16 -49
19 -49 4 0 -5 4 -10 8 -10 11 0 114 -68 122 -80 4 -6 31 -26 60 -45 41 -26 49
-36 37 -41 -20 -7 -22 -24 -3 -24 18 0 29 -56 15 -81 -8 -15 -6 -21 7 -26 30
-11 58 62 30 82 -24 18 -20 21 19 17 21 -3 35 0 35 7 0 22 18 10 38 -23 20
-34 21 -35 75 -29 35 4 57 2 61 -6 4 -6 15 -11 25 -11 10 0 32 -18 50 -40 17
-22 36 -40 40 -40 17 0 21 33 6 50 -14 15 -13 18 2 33 16 14 25 14 77 2 32 -8
68 -22 80 -33 24 -21 56 -35 56 -24 0 19 -33 52 -51 52 -25 0 -59 17 -59 30 0
6 13 10 30 10 22 0 28 4 24 15 -3 8 4 26 15 41 12 15 19 29 16 32 -3 3 -11 -1
-18 -10 -23 -29 -127 -52 -127 -28 0 5 9 15 20 22 24 15 27 30 3 21 -11 -4
-14 -3 -9 5 4 7 16 12 27 12 10 0 19 4 19 9 0 15 -48 41 -76 41 -25 0 -26 2
-19 38 3 20 11 41 16 47 5 5 9 26 9 48 0 21 4 36 9 33 11 -7 44 42 36 54 -4 6
-16 8 -29 4 -24 -6 -39 15 -50 69 -8 35 1 34 65 -9 47 -31 56 -34 78 -24 20 9
22 13 10 21 -16 10 43 1 76 -12 18 -7 18 -8 -5 -9 -35 -1 -59 -17 -42 -28 13
-9 19 -29 28 -102 4 -25 17 -62 30 -82 13 -21 24 -47 24 -57 0 -22 27 -41 59
-41 11 0 32 -11 47 -25 14 -13 35 -27 45 -30 11 -4 19 -15 19 -25 0 -10 7 -20
15 -24 22 -8 18 -33 -5 -39 -11 -3 -20 -13 -20 -22 0 -14 -7 -15 -45 -9 -38 5
-45 4 -45 -11 0 -14 8 -16 58 -10 31 4 64 13 72 20 8 7 29 16 47 19 24 6 34 3
42 -11 9 -15 12 -16 20 -3 5 8 7 18 5 22 -8 13 16 78 29 78 6 0 23 12 38 26
46 44 74 15 49 -50 -13 -36 -7 -32 23 13 15 23 27 57 29 82 2 35 7 44 23 47
11 2 30 8 42 14 31 15 40 3 18 -22 -10 -11 -15 -23 -11 -27 10 -10 59 21 72
46 6 12 21 32 33 45 26 27 27 46 4 47 -31 2 -48 -2 -66 -19 -23 -21 -35 -7
-39 48 l-3 44 55 27 c46 22 60 25 90 16 19 -5 41 -14 48 -20 9 -7 19 -4 36 12
17 16 31 21 48 16 20 -5 20 -4 6 5 -10 6 -18 22 -18 35 0 38 88 89 91 53 6
-57 -4 -135 -19 -145 -21 -17 -23 -55 -3 -70 13 -10 14 -15 4 -32 -16 -26 -16
-58 -1 -118 7 -27 13 -49 13 -50 1 -2 16 3 34 10 29 10 34 10 46 -6 10 -14 24
-18 62 -15 l48 3 5 -45 c3 -31 10 -45 20 -45 9 0 14 8 13 20 -2 26 15 55 32
55 21 0 47 -56 43 -93 -3 -31 -4 -32 -53 -32 -98 -1 -125 -5 -125 -18 0 -16
54 -70 62 -62 3 3 17 1 32 -5 21 -8 26 -15 21 -30 -6 -18 -4 -19 20 -10 36 14
54 -6 53 -59 0 -35 -4 -43 -31 -56 -16 -8 -37 -15 -46 -15 -18 0 -47 38 -43
58 2 6 -2 20 -7 30 -11 18 -12 15 -15 -28 -1 -19 -43 -25 -62 -9 -13 10 -19 8
-38 -15 -27 -35 -85 -47 -175 -36 -54 7 -69 6 -83 -7 -11 -10 -26 -13 -41 -9
-16 4 -29 0 -37 -8 -6 -8 -25 -18 -42 -21 -24 -6 -35 -2 -56 18 -15 14 -42 32
-60 41 -29 15 -38 15 -80 3 -48 -14 -72 -12 -84 6 -9 15 -177 20 -194 6 -8 -6
-11 -15 -8 -20 13 -22 -30 -6 -54 20 -15 16 -37 32 -48 35 -24 7 -36 54 -22
80 12 22 85 39 133 32 l40 -7 -35 30 c-19 17 -43 30 -52 31 -11 0 -18 8 -18
19 0 17 -42 41 -70 41 -16 0 -18 -55 -3 -72 23 -25 2 -52 -61 -77 -44 -19 -55
-28 -60 -52 -5 -24 -10 -29 -36 -29 -25 0 -30 4 -30 24 0 13 -6 29 -14 35 -12
10 -15 7 -18 -21 -2 -26 -8 -34 -27 -36 -35 -5 -46 12 -27 39 18 26 22 69 6
69 -5 0 -14 -9 -20 -20 -11 -21 -70 -50 -100 -50 -10 0 -21 -7 -24 -16 -6 -15
-8 -15 -28 2 -20 19 -21 19 -14 -3 13 -40 -31 -27 -53 15 -7 13 -22 27 -34 31
-17 7 -23 18 -25 45 -3 42 3 44 36 14 23 -21 25 -22 17 -3 -4 11 -10 30 -12
42 -7 31 -28 46 -53 38 -18 -6 -20 -13 -17 -66 3 -44 1 -59 -9 -59 -17 0 -87
92 -76 99 16 11 20 50 7 67 -17 24 -38 8 -33 -27 3 -16 1 -29 -3 -29 -4 0 -15
-3 -25 -7 -12 -4 -15 -3 -10 5 4 7 4 18 -1 24 -4 7 -7 22 -8 33 0 13 -8 21
-25 23 -19 3 -22 1 -13 -10 16 -19 21 -120 6 -125 -8 -3 -14 13 -19 46 -6 50
-7 51 -40 51 -18 0 -36 -4 -39 -10 -3 -5 -21 -10 -40 -10 -36 0 -38 3 -50 73
-6 40 -31 59 -46 36 -7 -11 -9 -10 -9 5 0 28 -69 109 -83 98 -18 -14 -49 2
-86 43 l-33 38 7 80 c4 45 12 89 18 98 5 9 7 32 3 52 -7 39 -26 56 -116 101
-30 16 -64 36 -75 45 -47 40 -211 143 -180 114 6 -5 55 -43 110 -83 131 -97
205 -161 205 -177 0 -13 -30 -33 -50 -33 -6 0 -15 11 -20 25 -9 24 -30 35 -30
15 0 -5 -14 -10 -30 -10 -19 0 -33 -6 -37 -16 -4 -10 -16 -14 -39 -12 -22 1
-42 -4 -56 -16 -21 -18 -22 -18 -35 0 -7 10 -13 21 -13 25 0 8 -11 12 -62 23
-16 4 -28 13 -28 21 0 8 -6 15 -14 15 -18 0 -132 88 -185 145 -49 51 -81 73
-81 54 0 -6 17 -25 37 -42 20 -18 58 -51 83 -73 25 -23 65 -59 89 -80 24 -21
39 -40 34 -41 -13 -5 -120 46 -203 95 -80 47 -103 56 -98 40 5 -13 26 -26 148
-92 121 -66 117 -63 100 -79 -20 -19 -76 -37 -114 -37 -18 0 -37 -5 -43 -11
-12 -12 -53 4 -53 21 0 6 -9 10 -21 10 -11 0 -33 14 -49 32 -28 30 -34 32
-110 34 -89 3 -140 28 -140 70 0 12 -7 27 -15 34 -8 7 -15 27 -15 45 0 18 -7
38 -15 45 -13 11 -20 9 -43 -13 -19 -18 -32 -23 -42 -17 -8 5 -18 6 -23 3 -13
-8 -45 26 -57 62 -6 19 -22 41 -36 49 -13 9 -24 23 -24 31 0 8 -8 15 -18 15
-26 0 -42 20 -42 52 0 41 -27 47 -55 12 -18 -23 -25 -26 -37 -16 -8 6 -18 9
-21 6 -6 -6 -54 8 -150 42 -49 18 -102 18 -121 -1 -21 -22 -35 -19 -46 11 -18
46 -5 95 21 79 19 -12 68 -14 75 -3 10 15 -28 50 -49 44 -13 -3 -22 5 -34 30
-10 20 -24 34 -35 34 -10 0 -15 -5 -12 -13 2 -7 -6 -29 -19 -48 -24 -35 -42
-110 -30 -122 14 -15 12 -65 -2 -71 -8 -3 -15 -13 -15 -23 0 -10 -7 -26 -14
-36 -12 -16 -18 -17 -38 -7 -28 15 -188 171 -188 184 0 5 8 19 18 30 17 21 17
21 -4 4 -25 -22 -57 -23 -74 -3 -18 22 -61 19 -67 -4 -10 -37 -163 -44 -221
-10 -40 23 -52 24 -52 4 0 -21 -15 -19 -64 10 -43 25 -44 25 -67 6 -20 -16
-22 -21 -10 -35 12 -14 11 -20 -5 -39 -11 -12 -26 -34 -33 -48 -14 -28 -59
-59 -85 -59 -12 0 -15 6 -10 25 7 27 4 28 -56 25 -19 -1 -42 -8 -51 -16 -8 -8
-22 -14 -30 -14 -8 0 -20 -5 -27 -12 -9 -9 -12 -9 -12 0 0 7 -9 12 -20 12 -11
0 -20 -5 -20 -11 0 -6 7 -9 15 -6 8 4 17 2 20 -3 4 -6 18 -7 33 -3 26 6 26 6
8 -13 -11 -10 -28 -38 -38 -61 -11 -25 -26 -44 -36 -44 -9 -1 -39 -2 -67 -3
-49 -1 -49 -1 -56 -39 -7 -42 -10 -47 -34 -51 -9 -1 -20 -8 -25 -16 -4 -7 -16
-11 -27 -8 -10 3 -24 -1 -31 -9 -17 -18 -36 -17 -28 2 4 12 -4 11 -47 -4 -29
-10 -68 -19 -88 -19 l-37 0 22 44 c11 24 26 44 31 44 6 0 25 9 42 20 22 13 31
25 27 35 -4 9 -13 14 -21 11 -44 -17 -63 -18 -63 -2 0 9 5 16 10 16 6 0 10 11
10 24 0 21 8 27 58 42 31 9 87 19 125 22 37 2 67 8 67 12 0 26 -194 4 -270
-29 -24 -11 -24 -11 -1 -7 l23 5 -20 -22 c-11 -12 -27 -39 -35 -59 -9 -22 -28
-43 -47 -53 -36 -19 -50 -13 -33 14 9 15 8 17 -10 16 -11 -1 -25 -12 -31 -26
-12 -27 -36 -55 -36 -42 0 4 -4 2 -9 -5 -7 -12 -11 -11 -22 1 -12 13 -17 13
-37 -1 -28 -18 -43 -7 -16 13 23 17 9 19 -35 4 -17 -6 -30 -17 -29 -24 2 -8
-1 -15 -7 -17 -5 -2 -11 8 -13 20 -3 20 -8 23 -28 18 -18 -5 -22 -3 -18 9 10
24 -3 17 -48 -26 -52 -50 -98 -84 -98 -71 0 5 7 15 15 22 26 22 19 43 -12 35
l-28 -7 29 27 c23 22 26 29 15 36 -8 5 -10 9 -4 9 5 0 -1 8 -15 17 -31 22 -93
18 -167 -11 -33 -13 -72 -22 -86 -20 -18 2 -25 -1 -21 -8 5 -7 2 -8 -5 -3 -8
4 -21 -1 -32 -14 -11 -12 -29 -21 -39 -21 -11 0 -20 -7 -20 -15 0 -14 -12 -20
-34 -16 -5 1 -6 -6 -2 -15 4 -12 2 -15 -9 -10 -8 3 -14 0 -12 -6 1 -6 -19 -22
-45 -36 -43 -22 -62 -42 -40 -42 19 0 118 33 131 44 12 8 13 8 7 -1 -4 -7 -2
-13 4 -13 6 0 13 7 16 15 6 14 34 22 34 9 0 -10 -44 -43 -57 -44 -7 0 -13 -4
-13 -10 0 -17 -52 -61 -67 -56 -8 3 -11 1 -8 -4 4 -6 0 -17 -9 -25 -8 -8 -16
-11 -18 -7 -5 13 -69 42 -91 42 -16 0 -18 3 -9 9 15 9 10 14 -58 53 -27 16
-63 51 -90 88 -77 105 -91 120 -130 140 -33 17 -38 24 -42 65 -4 30 -18 65
-44 103 -21 31 -46 73 -56 92 -25 52 -58 156 -58 185 0 30 -47 135 -60 135 -5
0 -8 12 -6 28 1 18 7 27 19 26 9 -1 17 4 17 12 0 8 5 14 12 14 6 0 3 7 -8 15
-19 14 -19 15 3 21 13 3 23 11 23 16 0 5 16 26 35 46 19 20 37 44 40 52 5 16
136 84 165 86 9 1 30 8 46 17 16 8 51 24 77 34 38 14 53 26 67 56 14 29 16 37
5 33 -42 -16 -99 -26 -105 -19 -4 4 -11 18 -14 29 -9 28 18 39 40 17 9 -10 34
-18 58 -18 67 -3 66 -2 50 -32 -7 -16 -14 -34 -14 -41 0 -7 -7 -15 -15 -18
-18 -7 -20 -28 -2 -21 6 2 18 -5 25 -17 8 -13 11 -15 8 -4 -4 13 6 10 45 -12
27 -17 53 -29 57 -29 18 3 32 -2 32 -12 0 -6 6 -17 14 -25 12 -12 19 -10 46
16 18 17 38 30 45 30 7 0 15 7 19 15 3 9 19 15 41 15 19 0 35 4 35 9 0 5 -18
45 -40 89 -38 76 -60 99 -81 86 -6 -3 -17 -3 -25 0 -12 4 -10 10 8 31 25 29
38 32 38 7 0 -9 23 -37 51 -62 72 -62 74 -65 98 -104 12 -19 32 -36 44 -38 13
-2 24 -13 27 -28 7 -27 33 -30 75 -10 11 5 58 24 105 43 47 19 94 38 105 42
39 16 50 14 25 -5 l-25 -20 30 10 c17 5 43 12 58 15 21 4 27 10 22 24 -4 12 2
21 20 29 43 20 123 102 135 138 6 18 9 42 5 53 -4 13 0 23 10 29 13 6 9 9 -17
10 -111 4 -318 23 -343 32 -16 5 -41 7 -55 4 -20 -5 -12 6 38 54 64 61 75 85
45 97 -16 6 -14 9 10 21 15 8 27 21 27 29 0 17 17 22 101 30 51 6 73 3 98 -9
17 -9 31 -12 31 -7 0 5 -6 12 -12 14 -15 6 8 27 31 27 11 0 11 -3 1 -15 -10
-12 -10 -15 0 -15 7 0 18 7 24 15 15 21 179 34 200 16 11 -9 20 -10 35 -2 23
13 159 12 167 -1 3 -4 -1 -8 -8 -9 -7 0 -4 -4 7 -9 13 -5 26 -3 37 8 14 12 32
14 89 8 39 -3 80 -11 91 -17 11 -6 31 -8 45 -4 16 4 22 2 18 -5 -3 -5 -17 -10
-30 -10 -13 0 -27 -4 -30 -10 -8 -13 1 -13 57 4 28 9 58 12 75 7 26 -7 27 -8
8 -18 -19 -11 -19 -12 8 -22 15 -6 27 -15 27 -21 0 -6 12 -4 30 5 36 19 46 19
30 1 -15 -19 -24 -93 -11 -100 15 -10 61 59 54 83 -3 12 -1 21 6 21 6 0 10 -3
10 -7 -4 -24 4 -25 19 -5 l18 24 120 -39 c117 -39 236 -102 429 -227 131 -86
158 -108 143 -117 -19 -13 10 -30 38 -23 14 4 34 -5 61 -28 22 -18 66 -52 96
-76 30 -24 75 -64 100 -90 59 -62 188 -184 213 -200 17 -11 14 -12 -23 -8 -36
3 -43 1 -49 -16 -6 -19 -6 -19 -21 1 -8 12 -16 30 -18 42 -4 17 -2 19 10 9 16
-13 20 -3 7 18 -5 7 -16 10 -24 7 -10 -4 -22 2 -31 15 -17 25 -60 33 -84 15
-21 -16 -10 -45 17 -45 12 0 18 -4 15 -10 -3 -5 -1 -10 5 -10 7 0 9 -8 5 -20
-4 -11 -2 -20 4 -20 6 0 11 -7 11 -15 0 -8 17 -19 41 -25 23 -6 39 -14 36 -17
-11 -10 -82 20 -115 48 -31 27 -62 38 -62 22 0 -5 17 -17 37 -28 64 -34 55
-50 -31 -51 -41 -1 -82 -6 -92 -12 -13 -7 1 -8 48 -5 84 7 150 -3 174 -26 11
-10 33 -23 49 -29 23 -8 25 -11 9 -11 -11 -1 -29 -7 -39 -15 -18 -13 -17 -14
16 -13 24 1 43 -6 59 -21 14 -13 34 -21 49 -20 20 2 25 -1 23 -14 -4 -22 11
-23 28 -3 14 17 65 21 55 5 -6 -10 31 -49 48 -50 4 0 7 11 7 25 0 14 3 25 8
25 18 0 72 -41 72 -55 0 -13 -3 -13 -20 -3 -23 15 -41 1 -20 -15 18 -15 20
-69 2 -75 -7 -2 -20 4 -27 14 -13 18 -14 18 -9 -3 4 -12 14 -29 24 -38 16 -15
19 -14 43 14 14 17 27 36 29 43 4 11 8 11 20 0 9 -7 23 -10 31 -6 9 3 26 -3
38 -15 25 -23 20 -28 -10 -9 -29 18 -52 4 -45 -29 5 -23 0 -31 -25 -46 -35
-20 -37 -26 -17 -52 9 -13 18 -16 32 -10 10 5 26 9 34 9 8 1 17 12 20 25 9 40
27 35 34 -9 6 -39 6 -40 25 -21 20 20 19 52 -2 79 -18 23 -1 23 28 0 20 -15
30 -18 33 -10 7 21 21 14 73 -35 57 -53 74 -51 35 5 -31 45 -32 51 -9 67 14
10 15 18 7 36 -6 13 -8 35 -4 49 l6 25 7 -25 c4 -14 19 -33 33 -43 24 -18 26
-18 44 -2 18 16 22 16 61 1 23 -10 52 -24 63 -32 50 -35 33 -8 -42 67 -45 44
-82 84 -82 89 0 5 -12 10 -27 12 -29 3 -30 7 -19 45 6 18 -2 26 -53 54 -33 18
-59 38 -58 43 3 18 -44 18 -63 1 -26 -24 -90 -22 -110 2 -8 11 -22 20 -30 21
-52 5 -145 23 -154 30 -132 97 -212 162 -239 192 -17 21 -78 76 -135 122 -180
146 -197 160 -201 170 -2 5 9 23 25 39 27 28 27 29 6 29 -15 0 -22 6 -22 20 0
41 67 79 86 49 4 -7 22 -9 45 -6 49 6 52 -8 4 -17 -34 -7 -42 -15 -28 -29 3
-4 14 0 23 8 25 23 76 30 83 12 4 -12 -1 -15 -22 -15 -32 1 -131 -49 -139 -71
-8 -20 26 -41 67 -41 41 0 94 29 111 59 10 19 8 21 -17 21 -22 0 -25 2 -13 10
8 6 27 7 43 4 49 -10 49 43 0 109 -34 44 -51 52 -73 32 -9 -8 -24 -15 -34 -15
-19 0 -34 28 -20 39 17 12 34 50 28 65 -11 29 -54 48 -93 42 -55 -10 -91 -27
-91 -43 0 -9 -7 -13 -17 -10 -97 26 -111 32 -106 44 3 7 0 13 -6 13 -6 0 -11
-4 -11 -10 0 -5 -12 -10 -27 -11 -16 0 15 -12 67 -25 103 -27 129 -41 92 -51
-17 -4 -21 -10 -16 -22 14 -35 16 -51 5 -51 -6 0 -11 -7 -11 -15 0 -8 -12 -17
-27 -21 -16 -3 -40 -10 -56 -16 -29 -11 -56 3 -131 66 -27 23 -28 25 -13 41
19 18 22 35 8 35 -5 0 -16 3 -25 6 -10 4 -16 1 -16 -9 0 -24 -19 -31 -45 -17
l-22 12 23 23 c13 13 24 29 24 34 0 6 12 8 28 5 15 -2 41 -1 57 4 28 8 26 9
-27 16 -42 5 -58 12 -58 23 0 10 -6 13 -17 9 -10 -4 -15 -4 -12 -1 4 3 -9 22
-27 42 -39 42 -50 37 -56 -24 -3 -42 -3 -42 34 -48 32 -6 36 -9 28 -23 -26
-45 -24 -45 -106 -7 -44 20 -80 41 -82 46 -2 5 -12 9 -22 9 -22 0 -44 35 -34
53 30 52 76 74 167 78 38 2 47 6 47 21 0 15 8 13 60 -15 40 -21 60 -38 60 -51
0 -12 5 -16 15 -12 8 3 22 9 30 12 17 7 19 -17 6 -51 -9 -22 4 -45 26 -45 18
0 46 65 38 89 -3 10 -14 26 -25 36 -32 29 -25 46 17 40 20 -2 39 -9 42 -14 4
-5 14 -3 25 5 11 8 14 14 8 14 -14 0 0 34 25 58 7 8 10 18 7 24 -11 17 19 -3
33 -23z m158 20 c4 -6 13 -8 20 -5 8 3 29 -3 47 -12 20 -10 27 -17 18 -19 -24
-5 -113 22 -118 35 -5 15 24 16 33 1z m-247 -44 c-3 -3 -9 2 -12 12 -6 14 -5
15 5 6 7 -7 10 -15 7 -18z m392 -5 c0 -5 -5 -10 -11 -10 -5 0 -7 5 -4 10 3 6
8 10 11 10 2 0 4 -4 4 -10z m-430 -10 c0 -5 -11 -10 -25 -10 -14 0 -25 5 -25
10 0 6 11 10 25 10 14 0 25 -4 25 -10z m581 -10 c-32 -27 -57 -27 -34 0 10 11
27 20 38 20 19 -1 19 -2 -4 -20z m625 -35 c10 -8 27 -15 37 -15 18 0 23 -25 7
-35 -6 -4 -9 -14 -8 -22 2 -9 -3 -18 -11 -21 -10 -3 -12 1 -8 17 4 18 2 21
-10 17 -13 -5 -14 -4 -3 8 25 31 4 37 -34 11 -29 -19 -37 -22 -32 -10 3 9 9
28 12 41 7 28 22 30 50 9z m-571 -5 c7 -12 -12 -12 -40 0 -18 8 -17 9 7 9 15
1 30 -3 33 -9z m686 -91 c-8 -24 -8 -36 1 -46 10 -12 6 -14 -28 -7 -21 3 -40
7 -41 8 -1 1 14 21 34 44 40 48 51 48 34 1z m-681 11 c0 -5 -6 -10 -14 -10 -8
0 -18 5 -21 10 -3 6 3 10 14 10 12 0 21 -4 21 -10z m854 -22 c23 -46 13 -68
-32 -68 -49 0 -61 10 -55 41 3 17 16 32 36 41 18 9 33 16 34 17 1 0 9 -13 17
-31z m-364 4 c0 -5 -14 -9 -30 -10 -17 0 -28 4 -25 9 8 11 55 12 55 1z m-487
-9 c-7 -2 -21 -2 -30 0 -10 3 -4 5 12 5 17 0 24 -2 18 -5z m437 -33 c0 -5 -12
-10 -26 -10 -14 0 -23 4 -19 10 3 6 15 10 26 10 10 0 19 -4 19 -10z m509 -49
c-15 -5 -59 20 -53 30 2 4 18 0 34 -9 16 -9 25 -19 19 -21z m135 13 c29 -4 46
-12 46 -20 0 -16 -8 -17 -74 -8 -29 4 -46 12 -46 20 0 16 8 17 74 8z m146 -19
c0 -19 -5 -25 -20 -25 -20 0 -20 1 -3 25 22 30 23 30 23 0z m-897 -2 c-2 -7 2
-13 7 -13 6 0 10 5 10 10 0 6 5 10 11 10 5 0 8 -4 5 -9 -3 -5 1 -14 9 -21 10
-9 15 -9 15 -1 0 6 9 11 20 11 25 0 26 -25 1 -42 -10 -7 -20 -22 -23 -33 -4
-22 -19 -23 -88 -4 -65 18 -82 51 -34 69 18 7 24 15 20 26 -5 12 0 15 22 12
15 -2 26 -8 25 -15z m519 2 c30 -5 35 -9 25 -19 -20 -20 -52 -24 -78 -10 -32
18 -59 17 -59 -1 0 -24 -24 -28 -65 -11 -50 21 -72 20 -80 -4 -3 -11 -10 -20
-15 -20 -5 0 -7 7 -4 15 8 19 -1 19 -31 -1 -33 -21 -32 -34 3 -34 43 0 54 -13
50 -56 l-3 -39 -55 -6 c-30 -3 -68 -11 -85 -19 l-30 -12 35 -16 c27 -12 31
-16 17 -20 -34 -7 -66 7 -73 33 -9 38 2 55 35 55 17 0 52 5 80 11 37 8 48 14
47 27 -2 12 -13 17 -39 17 -40 1 -58 12 -38 24 9 6 6 10 -13 15 -62 15 -12 56
69 56 23 0 55 6 70 14 27 14 155 14 237 1z m193 -25 c120 -16 125 -18 101 -36
-20 -14 -20 -14 0 -14 31 0 45 -19 33 -43 -10 -17 -18 -19 -69 -13 -43 5 -59
3 -63 -6 -4 -10 -7 -10 -15 1 -6 8 -19 12 -32 8 -16 -4 -24 1 -33 21 -6 15
-25 39 -41 53 -32 28 -29 52 7 45 12 -3 63 -10 112 -16z m242 -46 c3 -10 8
-12 12 -5 10 16 151 1 170 -18 9 -9 23 -16 31 -16 16 0 22 -42 8 -61 -4 -6 -2
-19 5 -28 12 -17 15 -16 39 12 l25 30 -4 -46 c-4 -44 -3 -46 12 -27 13 16 17
17 24 6 6 -10 13 -10 29 -2 29 15 86 -16 90 -49 3 -23 -2 -27 -44 -38 -49 -13
-74 -5 -74 25 0 8 -5 11 -10 8 -6 -4 -8 -11 -5 -16 4 -5 -1 -9 -9 -9 -9 0 -16
-7 -16 -15 0 -16 -9 -19 -34 -9 -11 4 -14 13 -10 30 6 24 5 24 -61 24 -72 0
-105 12 -105 37 0 15 -2 14 -14 -2 -8 -11 -19 -16 -30 -12 -13 5 -16 14 -10
42 5 30 4 35 -13 35 -10 0 -29 -7 -41 -16 -36 -25 -56 -11 -48 34 10 61 15 82
21 92 10 16 55 12 62 -6z m-433 -46 c8 -7 34 -31 60 -52 59 -49 60 -66 5 -56
-22 4 -46 13 -52 19 -6 6 -19 11 -29 11 -15 0 -18 8 -18 45 0 46 10 56 34 33z
m-174 -28 c0 -5 -4 -10 -10 -10 -5 0 -10 5 -10 10 0 6 5 10 10 10 6 0 10 -4
10 -10z m-2962 -6 c60 -8 67 -20 17 -30 -20 -3 -34 -9 -31 -12 3 -2 26 1 52 8
51 15 64 7 64 -38 0 -26 -35 -82 -52 -82 -5 0 -18 -10 -28 -23 -44 -56 -159
-83 -170 -40 -4 14 -13 20 -33 19 -21 -1 -30 5 -40 26 -8 20 -19 28 -37 28
-21 0 -59 35 -48 45 2 1 32 7 68 12 63 10 64 10 20 12 -25 1 -53 6 -64 10 -15
6 -11 10 23 23 30 12 39 21 35 32 -5 14 6 16 82 16 49 0 113 -3 142 -6z m3430
-21 c-2 -10 -14 -20 -28 -22 -25 -3 -25 -3 -6 18 23 26 39 27 34 4z m502 4 c0
-2 -10 -12 -21 -23 -22 -19 -22 -19 -10 4 10 18 31 31 31 19z m-2150 -27 c0
-12 -43 -30 -71 -30 -12 0 -19 5 -17 13 4 10 18 15 81 26 4 0 7 -4 7 -9z
m1164 -16 c9 -3 16 -12 16 -20 0 -8 10 -14 23 -14 12 0 28 -9 35 -20 17 -28
42 -26 39 3 -1 17 2 21 18 19 27 -5 44 -31 44 -67 0 -28 0 -29 -14 -11 -15 19
-15 19 -40 -4 l-25 -24 -34 33 c-19 18 -39 30 -45 26 -6 -3 -14 1 -17 9 -3 9
-13 16 -22 16 -20 0 -52 29 -52 47 0 14 45 18 74 7z m-3854 -70 c0 -6 -65 -34
-81 -34 -19 0 -1 14 34 27 37 13 47 15 47 7z m3595 -33 c3 -6 -3 -9 -12 -9
-10 0 -27 -3 -38 -6 -20 -8 -20 -7 -1 8 22 18 42 21 51 7z m1364 -28 c-1 -16
1 -35 4 -43 19 -53 26 -85 20 -91 -16 -15 -81 -21 -89 -8 -4 7 -3 14 4 17 19
6 14 22 -7 22 -33 0 -32 16 1 44 29 24 30 26 10 26 -32 0 -27 17 11 40 42 26
49 25 46 -7z m-5219 -27 c0 -2 -7 -7 -16 -10 -8 -3 -12 -2 -9 4 6 10 25 14 25
6z m-16 -48 c-6 -10 -4 -10 8 0 14 11 18 10 28 -7 9 -18 8 -21 -10 -21 -11 0
-20 -4 -20 -9 0 -5 -8 -12 -18 -15 -10 -3 -45 -29 -77 -56 -52 -44 -101 -69
-182 -94 -19 -6 -23 -3 -23 13 0 23 42 69 58 64 5 -2 23 9 38 24 16 15 32 27
37 25 5 -2 7 7 4 18 -4 16 -3 19 7 10 10 -7 16 -6 25 3 6 8 8 17 4 20 -3 4 3
7 15 7 11 0 24 -5 28 -12 5 -7 3 -8 -6 -3 -9 6 -11 4 -5 -4 5 -9 16 -4 37 18
30 31 67 44 52 19z m-244 -79 c-12 -23 -24 -38 -28 -34 -10 9 -10 55 0 49 4
-3 11 2 14 10 3 9 12 16 20 16 11 0 10 -9 -6 -41z m4275 -19 c3 -5 -3 -10 -14
-10 -12 0 -21 5 -21 10 0 6 6 10 14 10 8 0 18 -4 21 -10z m1210 -20 c4 -6 -7
-10 -27 -10 -25 0 -29 3 -18 10 19 13 37 13 45 0z m625 -54 c0 -8 -4 -18 -10
-21 -5 -3 -10 -10 -10 -16 0 -16 26 -10 44 10 22 24 65 36 79 22 6 -6 30 -11
53 -11 67 0 94 -14 94 -49 0 -46 -49 -76 -128 -78 -54 -1 -67 -5 -87 -27 -28
-31 -82 -36 -92 -9 -5 11 5 26 30 48 56 49 48 68 -19 43 -17 -6 -39 -8 -49 -4
-16 6 -16 8 0 33 37 55 95 92 95 59z m-630 -6 c0 -5 -16 -10 -36 -10 -21 0
-33 4 -29 10 3 6 19 10 36 10 16 0 29 -4 29 -10z m-203 -12 c19 -30 77 -48
138 -44 33 2 52 2 43 -1 -10 -2 -18 -6 -18 -9 0 -12 44 -45 58 -43 9 1 24 -1
32 -4 8 -3 22 -8 30 -10 9 -4 6 -6 -7 -6 -27 -1 -31 -19 -5 -27 9 -3 32 -12
50 -20 27 -12 32 -12 32 0 0 12 7 12 38 4 20 -5 38 -11 40 -13 2 -1 -6 -19
-18 -39 -29 -53 -27 -59 24 -52 41 6 46 5 65 -23 12 -16 21 -34 21 -41 0 -7 7
-10 16 -6 9 3 22 6 30 6 8 0 19 11 24 25 11 29 22 31 44 9 15 -14 18 -13 31
19 19 45 26 50 70 41 43 -8 45 -28 6 -48 -16 -9 -34 -29 -40 -47 -9 -26 -14
-29 -25 -20 -11 10 -16 7 -23 -15 -8 -25 -10 -25 -25 -10 -21 21 -37 20 -61
-1 -15 -15 -37 -18 -111 -18 -98 1 -151 17 -160 48 -4 17 -6 17 -38 -3 -36
-22 -68 -26 -84 -10 -6 6 -10 0 -9 -18 0 -26 -2 -27 -50 -28 -27 0 -58 5 -67
10 -13 8 -24 7 -38 -2 -11 -6 -33 -12 -49 -12 -16 0 -44 -3 -62 -7 l-34 -6 50
-17 50 -17 -95 0 c-90 -1 -127 7 -142 31 -11 17 3 69 28 103 29 39 31 63 5 63
-23 0 -36 16 -21 25 6 4 15 17 20 29 6 17 17 22 49 23 35 2 44 -3 68 -31 15
-18 38 -39 51 -45 22 -12 31 -51 12 -51 -5 0 -10 -7 -10 -16 0 -11 6 -14 20
-9 13 4 22 1 26 -9 10 -25 44 -20 44 7 0 15 12 29 39 44 30 18 38 27 34 43 -3
11 -12 20 -19 20 -16 0 -84 64 -84 79 0 5 -13 23 -28 39 -23 24 -28 38 -24 64
4 30 25 58 43 58 5 0 12 -6 16 -12z m463 -8 c0 -5 -5 -10 -11 -10 -5 0 -7 5
-4 10 3 6 8 10 11 10 2 0 4 -4 4 -10z m690 -75 c0 -8 18 -32 40 -54 l40 -39
-27 -22 c-18 -14 -30 -17 -37 -10 -5 5 -18 10 -28 10 -21 0 -22 4 -7 31 6 12
17 18 25 15 18 -7 17 4 -1 28 -12 16 -17 17 -30 6 -18 -15 -21 1 -5 31 13 22
30 25 30 4z m-1420 -30 c-7 -8 -16 -15 -21 -15 -5 0 -6 7 -3 15 4 8 13 15 21
15 13 0 13 -3 3 -15z m-1258 -75 c21 -6 43 -20 49 -31 10 -19 9 -20 -11 -9
-12 6 -32 9 -44 6 -16 -4 -30 2 -46 19 -22 23 -22 25 -4 25 10 0 36 -5 56 -10z
m166 -137 c2 -15 -4 -22 -24 -27 -34 -9 -71 15 -89 57 -12 28 -12 34 2 44 13
10 24 7 62 -20 25 -18 47 -43 49 -54z m1354 65 c-7 -7 -12 -8 -12 -2 0 14 12
26 19 19 2 -3 -1 -11 -7 -17z m1251 10 c23 -11 26 -17 21 -45 -5 -28 -3 -33
14 -33 11 0 33 -3 49 -6 20 -4 35 -1 46 10 21 21 27 20 27 -4 0 -13 5 -18 15
-14 24 10 18 -6 -15 -36 -21 -20 -30 -37 -30 -60 0 -24 -5 -33 -21 -37 -15 -4
-20 -12 -16 -28 3 -20 -1 -23 -41 -28 -51 -6 -133 15 -152 38 -7 9 -12 30 -12
48 3 83 1 79 40 75 29 -2 37 1 40 15 2 11 -5 20 -20 26 -23 9 -22 9 7 16 54
12 51 15 -12 12 -35 -2 -63 -1 -63 2 1 9 73 59 86 60 5 1 22 -5 37 -11z m277
-56 c0 -13 -30 -52 -40 -52 -5 0 -7 7 -5 15 3 8 7 22 10 30 4 15 35 21 35 7z
m-1261 -111 c-13 -11 -21 -22 -17 -26 10 -10 158 -12 186 -3 33 11 28 -17 -8
-44 -39 -28 -39 -43 0 -23 16 8 38 15 49 15 11 0 31 5 45 11 23 11 30 8 66
-25 22 -20 38 -36 36 -36 -3 0 2 -12 9 -27 14 -26 13 -29 -8 -45 -12 -10 -17
-18 -10 -18 6 0 15 -9 18 -20 7 -21 39 -27 51 -9 3 6 17 8 31 4 14 -3 31 -1
39 6 11 9 14 8 14 -5 0 -9 4 -16 8 -16 5 0 17 -7 28 -15 17 -14 15 -15 -31 -9
-41 5 -48 4 -38 -7 7 -7 31 -14 53 -15 51 -2 61 -10 28 -23 -15 -6 -41 -6 -64
-1 -39 9 -54 6 -54 -11 0 -5 15 -9 33 -9 17 0 43 -4 57 -8 18 -5 7 -8 -45 -12
-67 -5 -69 -6 -45 -19 15 -9 53 -15 92 -15 56 -1 68 2 72 17 2 11 14 17 31 17
15 0 24 -4 20 -10 -3 -5 -1 -10 5 -10 7 0 10 -6 7 -12 -2 -7 2 -20 9 -29 13
-14 9 -16 -38 -14 -110 3 -122 -20 -17 -31 69 -7 71 -7 45 -21 -19 -10 -31
-11 -45 -3 -27 14 -31 13 -31 -10 0 -18 7 -20 54 -20 47 0 56 -3 71 -26 20
-31 12 -44 -12 -21 -11 9 -28 13 -45 10 -31 -6 -53 8 -173 107 -44 37 -92 73
-106 81 -65 34 -169 100 -175 111 -4 6 0 16 9 23 22 16 21 25 -1 25 -10 0 -28
7 -40 16 -13 9 -22 11 -22 4 0 -7 -9 -5 -22 4 -25 18 -73 22 -63 6 11 -18 -32
-10 -105 19 -73 30 -113 57 -105 72 3 4 1 10 -4 13 -31 19 57 104 96 92 10 -3
32 1 48 8 39 17 44 12 14 -13z m1231 21 c0 -4 -9 -13 -20 -20 -22 -13 -27 -3
-8 16 14 14 28 16 28 4z m-1066 -37 c-10 -8 -26 -14 -34 -14 -11 0 -10 3 4 14
11 8 27 15 35 15 11 0 10 -4 -5 -15z m1250 6 c3 -5 -1 -12 -10 -15 -23 -9 -7
-26 25 -26 21 0 36 -11 61 -42 19 -24 38 -44 42 -46 4 -2 8 -10 8 -17 0 -8 9
-20 21 -28 11 -8 20 -23 19 -34 -5 -45 0 -63 19 -63 20 0 61 -55 61 -81 0 -8
9 -22 20 -32 11 -9 20 -25 20 -35 0 -10 4 -22 9 -28 5 -5 7 -22 4 -37 -5 -26
-9 -28 -47 -25 -35 3 -41 7 -44 28 -2 14 -13 33 -25 42 -18 14 -20 19 -9 29
19 20 14 33 -19 48 -18 8 -28 19 -25 26 3 8 -2 19 -10 25 -8 7 -14 18 -14 26
0 7 -10 19 -22 25 -13 7 -27 18 -31 25 -4 8 -15 14 -22 14 -20 0 -19 7 5 37
27 35 25 43 -10 43 -25 0 -29 4 -27 23 2 17 -4 23 -26 25 -23 3 -26 6 -16 18
9 11 7 14 -14 14 -14 0 -31 9 -39 22 -14 20 -18 21 -42 10 -31 -14 -86 -16
-86 -3 0 11 50 21 127 25 35 1 66 5 70 9 9 10 21 9 27 -2z m-2955 -45 c10 -12
8 -13 -8 -9 -12 3 -21 9 -21 14 0 14 16 11 29 -5z m201 -46 c0 -5 -4 -10 -10
-10 -5 0 -10 5 -10 10 0 6 5 10 10 10 6 0 10 -4 10 -10z m982 -10 c11 0 18 -5
16 -12 -7 -20 -22 -19 -48 3 -18 15 -20 19 -7 15 10 -3 28 -6 39 -6z m-1044
-21 c-2 -6 -8 -10 -13 -10 -5 0 -11 4 -13 10 -2 6 4 11 13 11 9 0 15 -5 13
-11z m1370 -74 c55 -17 65 -29 32 -40 -22 -7 -47 4 -74 34 -23 25 -23 25 42 6z
m547 5 c-3 -5 -14 -10 -23 -10 -15 0 -15 2 -2 10 20 13 33 13 25 0z m-415 -10
c0 -5 -2 -10 -4 -10 -3 0 -8 5 -11 10 -3 6 -1 10 4 10 6 0 11 -4 11 -10z
m-170 -45 c-13 -16 -90 -21 -90 -6 0 13 19 19 64 20 33 1 37 -1 26 -14z m460
-189 c0 -26 -28 -24 -54 3 -38 40 -33 52 14 30 22 -11 40 -26 40 -33z m760
-56 c11 -11 32 -20 46 -20 44 0 63 -18 80 -76 15 -53 15 -56 -3 -69 -10 -8
-13 -15 -7 -15 5 0 15 5 21 11 21 21 34 5 17 -20 -15 -21 -22 -23 -62 -17 -38
5 -49 3 -69 -16 -13 -12 -23 -28 -23 -36 0 -9 -6 -12 -17 -7 -10 4 -30 12 -45
17 -16 5 -28 16 -28 24 0 8 -5 14 -11 14 -7 0 -8 16 -3 45 6 43 -5 61 -22 34
-11 -18 -145 -1 -170 22 -11 10 -28 19 -37 19 -21 0 -21 9 -1 38 10 14 25 22
45 22 16 0 41 7 54 16 31 21 70 15 70 -10 0 -33 24 -30 61 8 40 41 74 46 104
16z m-5585 -8 c-15 -10 -35 -49 -35 -67 0 -8 7 -15 15 -15 8 0 15 -3 15 -6 0
-11 -58 -73 -64 -67 -3 3 -20 -4 -39 -16 -19 -11 -41 -21 -48 -20 -8 0 -4 5 9
11 12 6 22 15 22 20 0 17 -23 7 -51 -23 -16 -17 -29 -27 -29 -22 0 25 180 213
205 213 7 0 7 -3 0 -8z m4979 -41 c15 -16 14 -19 -9 -29 -27 -13 -28 -12 -38
34 -3 17 -1 20 14 17 10 -3 25 -13 33 -22z m-5234 -11 c0 -5 -4 -10 -10 -10
-5 0 -10 5 -10 10 0 6 5 10 10 10 6 0 10 -4 10 -10z m5138 -91 c43 -31 56 -47
25 -30 -33 18 -87 61 -77 61 6 0 29 -14 52 -31z m-4472 -30 c6 -11 -36 -52
-45 -44 -2 3 -13 0 -25 -6 -20 -10 -20 -10 -2 5 11 9 14 16 7 16 -18 0 -3 20
23 30 29 12 34 12 42 -1z m54 -13 c0 -3 -4 -8 -10 -11 -5 -3 -10 -1 -10 4 0 6
5 11 10 11 6 0 10 -2 10 -4z m-322 -57 c3 -16 -66 -91 -78 -84 -4 2 -15 -4
-25 -15 -10 -11 -22 -17 -27 -14 -4 3 -7 2 -6 -3 6 -16 -44 -55 -64 -50 -10 3
-21 0 -24 -7 -2 -6 -19 -13 -37 -14 l-32 -3 25 18 c14 9 27 20 30 24 3 4 18
12 33 18 22 9 27 8 27 -5 0 -14 3 -14 15 -4 12 10 13 15 4 21 -14 8 28 35 48
31 8 -2 10 3 6 14 -4 12 -3 15 5 10 7 -4 12 -1 12 8 0 9 7 16 15 16 8 0 12 6
9 14 -6 15 34 48 51 43 5 -2 11 -10 13 -18z m210 -3 c-10 -7 -18 -17 -18 -22
0 -17 -58 -79 -65 -72 -5 4 -2 15 5 24 10 11 10 18 3 22 -16 10 8 41 35 45 12
2 25 6 28 10 4 4 12 7 18 7 6 0 3 -7 -6 -14z m92 -12 c0 -17 -79 -98 -88 -90
-10 10 62 106 80 106 4 0 8 -7 8 -16z m4520 -39 c-10 -12 -10 -18 0 -30 20
-24 2 -31 -30 -13 -24 14 -29 14 -34 2 -7 -19 -26 -18 -26 2 0 8 15 21 33 29
19 8 40 21 47 31 9 10 16 12 18 5 2 -7 -2 -18 -8 -26z m410 9 c0 -8 -3 -14 -7
-14 -13 1 -43 27 -37 32 10 10 44 -4 44 -18z m-61 -50 c33 -24 11 -43 -23 -20
-28 18 -34 36 -13 36 7 0 23 -7 36 -16z m-5051 -48 c-7 -8 -15 -12 -17 -11 -5
6 10 25 20 25 5 0 4 -6 -3 -14z m238 -30 c-18 -28 -56 -53 -56 -37 0 14 60 74
67 67 3 -3 -2 -17 -11 -30z m-676 4 c12 -8 11 -10 -7 -10 -13 0 -23 5 -23 10
0 13 11 13 30 0z m330 -44 c0 -8 -73 -47 -78 -41 -7 6 -5 8 38 28 39 18 40 19
40 13z m-100 -36 c0 -13 -11 -13 -30 0 -12 8 -11 10 8 10 12 0 22 -4 22 -10z
m5503 -64 c3 -8 -2 -16 -12 -19 -19 -5 -55 16 -44 26 12 12 51 7 56 -7z m1027
-23 c0 -7 4 -13 9 -13 16 0 43 -32 33 -39 -5 -3 -12 -19 -16 -34 -6 -26 -5
-28 14 -22 11 3 29 3 40 0 30 -9 28 -70 -2 -87 -31 -17 -56 -20 -63 -8 -4 6
-10 8 -14 5 -5 -2 -8 7 -8 20 0 14 3 25 8 25 20 0 7 20 -16 26 -25 6 -29 15
-39 86 -3 27 0 40 10 46 23 13 44 10 44 -5z m-2166 -88 c3 -9 0 -15 -9 -15 -8
0 -15 7 -15 15 0 8 4 15 9 15 5 0 11 -7 15 -15z m2392 -234 c6 -61 -13 -87
-70 -95 -40 -6 -52 -3 -103 27 -46 26 -59 39 -61 61 -3 27 -2 28 40 26 24 -2
59 5 78 14 19 8 52 15 74 13 38 -2 38 -3 42 -46z m-1996 -32 c0 -11 -4 -17
-10 -14 -5 3 -10 13 -10 21 0 8 5 14 10 14 6 0 10 -9 10 -21z"/>
<path d="M4893 4963 c9 -2 23 -2 30 0 6 3 -1 5 -18 5 -16 0 -22 -2 -12 -5z"/>
<path d="M4800 4941 c0 -6 4 -13 10 -16 6 -3 7 1 4 9 -7 18 -14 21 -14 7z"/>
<path d="M4410 4906 c0 -8 -6 -16 -12 -19 -7 -2 -10 -7 -7 -11 9 -9 79 25 73
36 -9 14 -54 9 -54 -6z"/>
<path d="M4620 4910 c0 -5 7 -10 16 -10 8 0 12 5 9 10 -3 6 -10 10 -16 10 -5
0 -9 -4 -9 -10z"/>
<path d="M4846 4901 c-4 -7 -5 -15 -2 -18 9 -9 19 4 14 18 -4 11 -6 11 -12 0z"/>
<path d="M5158 4903 c7 -3 16 -2 19 1 4 3 -2 6 -13 5 -11 0 -14 -3 -6 -6z"/>
<path d="M3599 4888 c-11 -39 7 -73 31 -58 12 7 12 12 0 34 -11 22 -28 34 -31
24z"/>
<path d="M3230 4845 c0 -2 19 -14 42 -26 38 -20 41 -23 25 -33 -48 -29 -53
-36 -19 -26 19 5 40 14 47 20 8 6 25 8 41 4 24 -6 26 -5 14 7 -7 8 -27 16 -43
17 -16 1 -46 11 -68 22 -21 11 -39 18 -39 15z"/>
<path d="M3414 4834 c-18 -14 -18 -15 4 -4 12 6 22 13 22 15 0 8 -5 6 -26 -11z"/>
<path d="M4430 4831 c-9 -19 -8 -21 15 -21 28 0 32 12 11 29 -12 10 -17 8 -26
-8z"/>
<path d="M5005 4840 c-8 -13 5 -13 25 0 13 8 13 10 -2 10 -9 0 -20 -4 -23 -10z"/>
<path d="M3840 4830 c-23 -7 -23 -8 -3 -9 12 -1 25 4 28 9 3 6 5 10 3 9 -2 -1
-14 -5 -28 -9z"/>
<path d="M4920 4824 c0 -8 5 -12 10 -9 6 3 10 10 10 16 0 5 -4 9 -10 9 -5 0
-10 -7 -10 -16z"/>
<path d="M3918 4823 c18 -2 45 -2 60 0 15 2 0 4 -33 4 -33 0 -45 -2 -27 -4z"/>
<path d="M3778 4813 c6 -2 18 -2 25 0 6 3 1 5 -13 5 -14 0 -19 -2 -12 -5z"/>
<path d="M3473 4798 c3 -9 1 -19 -6 -22 -7 -2 13 -4 43 -4 31 1 42 3 25 5 -16
3 -39 12 -49 21 -18 16 -19 16 -13 0z"/>
<path d="M3413 4773 c9 -2 23 -2 30 0 6 3 -1 5 -18 5 -16 0 -22 -2 -12 -5z"/>
<path d="M3250 4710 c0 -12 26 -19 39 -10 9 5 4 9 -13 12 -14 3 -26 2 -26 -2z"/>
<path d="M5270 4686 c0 -2 8 -10 18 -17 15 -13 16 -12 3 4 -13 16 -21 21 -21
13z"/>
<path d="M4155 4650 c3 -5 13 -10 21 -10 8 0 14 5 14 10 0 6 -9 10 -21 10 -11
0 -17 -4 -14 -10z"/>
<path d="M3667 4564 c-3 -3 -3 -12 0 -20 3 -8 -3 -21 -13 -29 -18 -14 -18 -14
2 -15 20 0 33 22 34 58 0 13 -12 16 -23 6z"/>
<path d="M5525 4561 c-3 -5 -1 -12 5 -16 5 -3 10 1 10 9 0 18 -6 21 -15 7z"/>
<path d="M5725 4518 c-5 -17 -8 -40 -6 -58 2 -15 31 44 31 61 0 14 -20 11 -25
-3z"/>
<path d="M4770 4513 c0 -19 11 -43 21 -43 13 0 11 14 -6 36 -8 10 -15 14 -15
7z"/>
<path d="M5569 4494 c-6 -8 -22 -14 -36 -14 -14 0 -21 -4 -18 -10 3 -5 24 -10
45 -10 28 0 42 5 49 19 9 15 7 20 -9 24 -11 3 -24 -1 -31 -9z"/>
<path d="M3925 4480 c3 -5 8 -10 11 -10 2 0 4 5 4 10 0 6 -5 10 -11 10 -5 0
-7 -4 -4 -10z"/>
<path d="M4815 4480 c-3 -5 1 -10 10 -10 9 0 13 5 10 10 -3 6 -8 10 -10 10 -2
0 -7 -4 -10 -10z"/>
<path d="M4773 4453 c-7 -3 -13 -11 -13 -18 0 -7 -7 -15 -15 -19 -24 -9 -6
-39 21 -33 13 2 21 1 19 -3 -5 -8 29 -20 55 -20 13 0 13 1 0 10 -11 7 -12 10
-2 10 8 0 12 9 10 22 -3 24 -55 59 -75 51z"/>
<path d="M5650 4420 c0 -5 5 -10 11 -10 5 0 7 5 4 10 -3 6 -8 10 -11 10 -2 0
-4 -4 -4 -10z"/>
<path d="M5682 4398 c-18 -18 -15 -28 8 -28 13 0 20 7 20 20 0 23 -10 26 -28
8z"/>
<path d="M2137 4384 c3 -7 9 -14 14 -14 14 0 10 17 -5 23 -10 4 -13 1 -9 -9z"/>
<path d="M4692 4346 c-16 -27 -25 -33 -44 -29 -15 3 -38 -4 -59 -17 l-34 -21
30 3 c17 1 35 -1 42 -5 7 -4 22 3 37 18 25 25 56 34 56 15 0 -5 -4 -10 -10
-10 -5 0 -7 -6 -4 -14 4 -11 12 -13 31 -5 13 5 28 7 32 5 4 -3 13 -1 21 5 13
7 13 9 0 10 -8 1 -18 1 -22 0 -5 0 -8 6 -8 15 0 14 7 15 43 10 29 -4 38 -3 27
4 -8 5 -22 10 -30 10 -8 0 -32 9 -52 20 l-36 19 -20 -33z"/>
<path d="M5604 4356 c-15 -12 -16 -17 -7 -27 10 -10 17 -8 36 9 13 12 27 19
32 15 4 -5 5 -2 1 5 -10 16 -38 15 -62 -2z"/>
<path d="M3812 4280 c-10 -17 -10 -20 3 -20 8 0 15 9 15 20 0 11 -1 20 -3 20
-1 0 -8 -9 -15 -20z"/>
<path d="M3624 4275 c-9 -23 3 -45 25 -45 29 0 36 18 15 41 -21 23 -33 24 -40
4z"/>
<path d="M5652 4277 c-9 -11 -10 -17 -2 -22 15 -9 23 -1 18 21 -3 15 -4 16
-16 1z"/>
<path d="M2925 4252 c-36 -7 -125 -54 -119 -63 9 -15 34 -10 88 18 28 15 53
28 55 29 11 8 -7 19 -24 16z"/>
<path d="M4565 4249 c-16 -5 -38 -7 -47 -5 -10 2 -21 0 -24 -5 -3 -5 0 -9 5
-9 6 0 11 -5 11 -11 0 -6 -15 -8 -43 -4 -25 4 -82 0 -138 -10 -52 -9 -155 -21
-229 -27 -153 -12 -167 -13 -230 -23 l-46 -7 4 40 c5 52 -13 62 -32 18 -14
-33 -16 -34 -43 -24 -42 16 -83 4 -78 -23 2 -12 9 -26 14 -33 8 -9 -26 -23
-137 -55 -81 -23 -194 -58 -252 -78 -107 -36 -262 -108 -268 -124 -2 -5 -7 -7
-12 -4 -4 3 -10 -2 -14 -10 -3 -8 -4 -15 -2 -15 2 0 43 19 92 41 176 82 258
109 361 119 201 19 221 19 233 5 19 -23 160 -9 160 16 0 6 9 5 21 -1 19 -10
20 -10 10 9 -24 43 -14 59 44 76 98 29 141 5 98 -54 -28 -37 -45 -92 -34 -105
17 -20 -13 -48 -43 -40 -27 6 -34 -4 -15 -23 20 -20 -9 -25 -43 -7 -23 12 -52
17 -93 16 -33 -2 -75 2 -92 7 -36 10 -93 -5 -93 -25 0 -6 -13 -17 -30 -24 -42
-17 -38 -28 14 -35 45 -7 71 -1 61 15 -9 14 5 38 26 43 10 3 17 1 13 -4 -3 -5
2 -9 11 -9 9 0 14 4 11 9 -4 5 3 7 14 4 26 -7 25 -27 -2 -46 l-23 -16 23 0
c24 -1 32 -31 8 -31 -24 0 -45 -29 -41 -58 1 -15 -2 -33 -7 -39 -21 -26 42
-14 66 12 13 14 30 25 38 25 8 0 26 13 40 29 37 41 132 93 154 84 17 -6 17 -5
5 10 -12 15 -10 17 15 19 16 0 35 1 42 1 6 -1 12 3 12 8 0 5 14 3 30 -6 24
-13 30 -13 30 -2 0 16 -37 51 -63 60 -15 6 -16 10 -4 39 10 24 21 34 40 36 27
3 67 44 67 68 0 13 -53 29 -68 20 -4 -2 -14 -1 -22 4 -27 16 3 30 91 41 46 5
123 19 171 30 136 30 289 19 280 -21 -3 -11 0 -11 13 0 13 11 26 10 78 -5 95
-26 117 -36 110 -48 -4 -7 5 -8 26 -4 17 4 57 0 89 -7 31 -8 62 -15 67 -16 6
-1 17 -2 24 -1 31 2 -7 20 -106 50 -56 18 -105 36 -108 41 -3 6 -18 10 -32 10
-30 0 -140 27 -169 41 -11 6 -24 9 -30 8 -19 -3 -34 1 -34 11 0 6 6 10 13 10
7 0 22 7 33 15 22 16 20 17 -21 4z m-741 -184 c-4 -8 -16 -15 -28 -15 -20 1
-20 1 4 15 31 18 30 18 24 0z"/>
<path d="M5283 4216 c26 -24 58 -29 64 -9 4 12 -40 33 -69 33 -20 0 -20 -1 5
-24z"/>
<path d="M4782 4208 c4 -12 86 -45 116 -47 28 -2 9 21 -34 39 -52 23 -88 26
-82 8z"/>
<path d="M2070 4201 c0 -5 -3 -16 -6 -24 -3 -9 2 -16 14 -19 15 -4 19 0 19 23
0 18 -6 29 -14 29 -7 0 -13 -4 -13 -9z"/>
<path d="M5215 4140 c-3 -6 1 -7 9 -4 18 7 21 14 7 14 -6 0 -13 -4 -16 -10z"/>
<path d="M5563 4138 c2 -7 15 -13 28 -13 19 0 25 -6 27 -27 3 -29 10 -31 52
-19 24 7 24 8 -17 29 -23 12 -44 26 -48 32 -9 15 -48 13 -42 -2z"/>
<path d="M2222 4132 c-7 -2 -12 -11 -12 -19 0 -10 -6 -14 -18 -11 -10 3 -27
-1 -37 -8 -10 -8 -15 -14 -11 -14 4 0 0 -7 -9 -16 -9 -9 -14 -23 -11 -30 3 -7
0 -16 -6 -20 -7 -5 -8 -2 -3 6 5 8 4 11 -3 6 -9 -5 -7 -36 3 -36 12 0 94 51
123 76 35 30 36 30 16 50 -11 11 -26 18 -32 16z m-42 -42 c0 -5 -5 -10 -11
-10 -5 0 -7 5 -4 10 3 6 8 10 11 10 2 0 4 -4 4 -10z"/>
<path d="M4447 4134 c-14 -14 -6 -21 23 -20 17 1 30 6 30 11 1 12 -43 19 -53
9z"/>
<path d="M4362 4118 c-16 -16 -15 -33 2 -47 21 -18 41 11 26 38 -13 25 -12 25
-28 9z"/>
<path d="M4415 4000 c-4 -6 -13 -9 -21 -6 -8 3 -14 -1 -14 -9 0 -8 -4 -15 -10
-15 -5 0 -10 -7 -10 -15 0 -21 13 -19 35 5 12 14 31 20 59 20 28 1 36 3 26 9
-30 17 -58 22 -65 11z"/>
<path d="M4976 3794 c12 -17 19 -21 24 -13 6 9 19 7 53 -6 46 -17 67 -15 67
10 0 8 -23 17 -63 24 -98 17 -101 16 -81 -15z"/>
<path d="M4115 3790 c-3 -5 -1 -10 4 -10 6 0 11 5 11 10 0 6 -2 10 -4 10 -3 0
-8 -4 -11 -10z"/>
<path d="M2755 3744 c-14 -5 -22 -14 -18 -18 4 -4 1 -11 -7 -16 -30 -19 9 -9
64 16 31 14 56 26 56 27 0 7 -73 0 -95 -9z m30 -4 c-3 -5 -12 -10 -18 -10 -7
0 -6 4 3 10 19 12 23 12 15 0z"/>
<path d="M5065 3740 c3 -5 10 -10 16 -10 5 0 9 5 9 10 0 6 -7 10 -16 10 -8 0
-12 -4 -9 -10z"/>
<path d="M3514 3695 c-18 -14 -18 -14 4 -8 12 3 22 9 22 14 0 12 -3 11 -26 -6z"/>
<path d="M3340 3671 c0 -26 -28 -39 -41 -20 -8 12 -11 12 -19 -1 -5 -8 -10
-21 -10 -27 0 -7 -9 -13 -20 -13 -34 0 -80 -29 -80 -49 0 -11 -8 -33 -17 -50
-15 -25 -16 -32 -5 -43 11 -11 15 -10 23 5 6 10 23 23 37 29 15 6 22 12 15 15
-14 5 -18 32 -5 34 4 1 53 3 110 4 57 2 106 6 109 9 12 12 -21 67 -43 72 -13
3 -24 15 -26 27 -4 28 -28 35 -28 8z"/>
<path d="M5580 3546 c0 -14 29 -31 38 -22 2 3 2 12 -1 21 -8 19 -37 20 -37 1z"/>
<path d="M5895 3520 c3 -5 8 -10 11 -10 2 0 4 5 4 10 0 6 -5 10 -11 10 -5 0
-7 -4 -4 -10z"/>
<path d="M6316 3512 c-7 -11 30 -38 119 -88 l70 -39 -23 30 c-24 31 -66 62
-121 88 -40 20 -38 19 -45 9z"/>
<path d="M5560 3502 c0 -5 7 -13 16 -16 10 -4 14 -1 12 6 -5 15 -28 23 -28 10z"/>
<path d="M5630 3475 c7 -9 15 -13 17 -11 7 7 -7 26 -19 26 -6 0 -6 -6 2 -15z"/>
<path d="M5942 3474 c10 -10 20 -15 24 -12 3 4 -5 12 -18 18 -22 12 -22 12 -6
-6z"/>
<path d="M6256 3464 c-4 -10 -1 -14 6 -12 15 5 23 28 10 28 -5 0 -13 -7 -16
-16z"/>
<path d="M6665 3460 c4 -6 11 -8 16 -5 14 9 11 15 -7 15 -8 0 -12 -5 -9 -10z"/>
<path d="M3054 3429 c-28 -30 -28 -31 -5 -24 85 26 118 55 63 55 -19 0 -38
-11 -58 -31z"/>
<path d="M5882 3438 c7 -20 158 -141 166 -133 4 4 -9 19 -28 33 -19 15 -54 46
-77 69 -42 42 -69 56 -61 31z"/>
<path d="M5586 3431 c-7 -10 32 -47 40 -38 3 3 3 15 -1 26 -6 21 -29 28 -39
12z"/>
<path d="M6813 3397 c5 -17 47 -28 47 -13 0 8 -11 16 -25 19 -15 2 -24 0 -22
-6z"/>
<path d="M7083 3364 c-9 -25 17 -62 49 -69 16 -4 32 -4 35 -1 9 8 -37 56 -53
56 -8 0 -11 6 -8 15 4 8 1 15 -5 15 -7 0 -14 -7 -18 -16z"/>
<path d="M6186 3275 c4 -8 11 -15 16 -15 6 0 5 6 -2 15 -7 8 -14 15 -16 15 -2
0 -1 -7 2 -15z"/>
<path d="M7200 3280 c0 -5 7 -13 17 -18 10 -6 14 -16 10 -26 -4 -11 -1 -16 11
-16 13 0 17 9 18 35 0 32 -2 35 -28 35 -15 0 -28 -4 -28 -10z"/>
<path d="M7100 3270 c0 -5 6 -10 13 -10 8 0 22 -9 32 -20 20 -22 57 -28 50 -7
-6 15 -61 47 -81 47 -8 0 -14 -4 -14 -10z"/>
<path d="M6072 3141 c4 -13 18 -16 19 -4 0 4 -5 9 -11 12 -7 2 -11 -2 -8 -8z"/>
<path d="M7361 3006 c-8 -9 -10 -23 -6 -33 6 -16 8 -15 16 6 13 32 7 47 -10
27z"/>
<path d="M6910 2980 c0 -5 7 -10 15 -10 8 0 15 5 15 10 0 6 -7 10 -15 10 -8 0
-15 -4 -15 -10z"/>
<path d="M6902 2944 c1 -9 9 -19 16 -22 9 -3 13 2 10 14 -1 9 -9 19 -16 22 -9
3 -13 -2 -10 -14z"/>
<path d="M7007 2946 c-3 -8 0 -17 7 -19 18 -7 40 8 32 22 -10 16 -33 14 -39
-3z"/>
<path d="M6929 2869 c-6 -3 -4 -11 4 -17 11 -9 21 -8 46 4 17 8 31 17 31 18 0
5 -72 1 -81 -5z"/>
<path d="M7174 2795 c-9 -21 16 -46 50 -49 14 -2 35 -11 46 -21 12 -10 20 -13
20 -7 0 7 -6 12 -12 12 -7 0 2 12 20 26 17 14 32 30 32 35 0 13 -47 11 -70 -3
-15 -10 -23 -10 -28 -2 -13 21 -52 27 -58 9z"/>
<path d="M7330 2725 c-14 -17 -5 -51 17 -59 22 -9 28 0 13 19 -10 13 -9 15 9
15 19 0 20 3 11 20 -13 24 -33 26 -50 5z"/>
<path d="M8070 2671 c0 -6 9 -15 19 -21 16 -8 19 -7 17 8 -3 18 -36 31 -36 13z"/>
<path d="M8491 2605 c-18 -35 -21 -55 -16 -85 7 -39 8 -40 46 -40 28 0 39 4
39 15 0 9 -9 15 -24 15 -34 0 -52 25 -38 53 18 38 31 87 23 87 -4 0 -18 -20
-30 -45z"/>
<path d="M8603 2564 c-8 -22 10 -31 52 -26 39 5 47 26 13 36 -38 10 -58 7 -65
-10z"/>
<path d="M7914 2539 c-10 -17 13 -36 27 -22 12 12 4 33 -11 33 -5 0 -12 -5
-16 -11z"/>
<path d="M8300 2490 c19 -13 30 -13 30 0 0 6 -10 10 -22 10 -19 0 -20 -2 -8
-10z"/>
<path d="M8385 2480 c28 -12 55 -12 55 0 0 6 -17 10 -37 9 -31 0 -34 -2 -18
-9z"/>
<path d="M8135 2440 c3 -5 13 -10 21 -10 8 0 14 5 14 10 0 6 -9 10 -21 10 -11
0 -17 -4 -14 -10z"/>
<path d="M6680 4621 c-13 -26 -13 -31 3 -31 14 0 47 31 47 43 0 16 -40 5 -50
-12z"/>
<path d="M6912 4599 c-26 -27 -37 -61 -28 -85 10 -25 34 0 47 48 14 53 7 66
-19 37z"/>
<path d="M6810 4510 c0 -5 7 -10 16 -10 8 0 12 5 9 10 -3 6 -10 10 -16 10 -5
0 -9 -4 -9 -10z"/>
<path d="M3072 4557 c-36 -16 -25 -26 16 -15 45 12 48 14 25 20 -10 3 -28 0
-41 -5z"/>
<path d="M3003 4533 c9 -2 23 -2 30 0 6 3 -1 5 -18 5 -16 0 -22 -2 -12 -5z"/>
<path d="M8036 4105 c-3 -8 -1 -15 4 -15 6 0 10 7 10 15 0 8 -2 15 -4 15 -2 0
-6 -7 -10 -15z"/>
<path d="M7143 3883 c-31 -6 -29 -23 2 -23 16 0 25 6 25 15 0 8 -1 14 -2 14
-2 -1 -13 -4 -25 -6z"/>
<path d="M7243 3850 c2 -29 27 -44 27 -16 0 8 3 21 6 30 4 11 0 16 -15 16 -16
0 -20 -6 -18 -30z"/>
<path d="M6885 3820 c3 -5 8 -10 11 -10 2 0 4 5 4 10 0 6 -5 10 -11 10 -5 0
-7 -4 -4 -10z"/>
<path d="M7066 3783 c-6 -14 -5 -15 5 -6 7 7 10 15 7 18 -3 3 -9 -2 -12 -12z"/>
<path d="M8326 3768 c-9 -12 -14 -24 -11 -26 9 -10 51 9 63 28 11 18 10 20
-12 20 -14 0 -32 -9 -40 -22z"/>
<path d="M7152 3678 c-17 -17 -15 -35 4 -42 13 -5 120 32 112 39 -2 1 -26 5
-53 9 -34 4 -55 2 -63 -6z"/>
<path d="M7530 3550 c-18 -17 -31 -33 -28 -35 3 -3 25 4 49 15 24 11 52 20 62
20 9 0 17 7 17 15 0 28 -64 18 -100 -15z"/>
<path d="M7460 3560 c0 -13 11 -13 30 0 12 8 11 10 -7 10 -13 0 -23 -4 -23
-10z"/>
<path d="M7539 3464 c-11 -14 -10 -15 11 -12 13 1 25 9 28 16 5 17 -23 15 -39
-4z"/>
<path d="M7633 3413 c9 -9 20 -13 24 -9 4 4 1 11 -7 16 -25 16 -35 11 -17 -7z"/>
<path d="M8389 3039 c-15 -29 1 -42 35 -29 23 8 25 13 16 30 -14 26 -36 26
-51 -1z"/>
<path d="M10225 2201 c-3 -5 -1 -12 5 -16 5 -3 10 1 10 9 0 18 -6 21 -15 7z"/>
</g>
</svg>
