<?xml version="1.0" ?><svg id="Icons" style="enable-background:new 0 0 32 32;" version="1.1" viewBox="0 0 32 32" xml:space="preserve" xmlns="http://www.w3.org/2000/svg" xmlns:xlink="http://www.w3.org/1999/xlink"><style type="text/css">
	.st0{fill:none;stroke:#000000;stroke-width:2;stroke-linecap:round;stroke-linejoin:round;stroke-miterlimit:10;}
</style><path class="st0" d="M28,31H18c-1.1,0-2-0.9-2-2V16c0-1.1,0.9-2,2-2h10c1.1,0,2,0.9,2,2v13C30,30.1,29.1,31,28,31z"/><path class="st0" d="M19,31H4c-1.1,0-2-0.9-2-2v-9c0-1.1,0.9-2,2-2h12"/><line class="st0" x1="16" x2="30" y1="20" y2="20"/><rect class="st0" height="13" width="6" x="20" y="1"/><line class="st0" x1="19" x2="27" y1="1" y2="1"/><line class="st0" x1="6" x2="6" y1="18" y2="31"/><rect class="st0" height="3" width="4" x="9" y="15"/></svg>