<svg width="60" height="60" viewBox="0 0 60 60" fill="none" xmlns="http://www.w3.org/2000/svg">
<path d="M19.7402 48.4202C19.5802 47.7002 19.5502 46.9802 19.6502 46.2602C19.7502 45.5402 20.0002 44.8802 20.4002 44.2802C18.1202 43.6802 16.0402 42.6602 14.1602 41.2202C13.8002 40.9402 13.5602 40.5602 13.4402 40.0802C13.3202 39.6002 13.3602 39.1402 13.5602 38.7002C14.5202 36.5802 16.0202 34.2002 18.0602 31.5602C19.1802 30.0802 20.3002 28.7602 21.4202 27.6002C19.3002 26.6402 17.7102 25.1302 16.6502 23.0702C15.5902 21.0102 15.3002 18.8402 15.7802 16.5602C16.2602 14.2802 17.4002 12.4102 19.2002 10.9502C21.0002 9.49023 23.0702 8.76023 25.4102 8.76023C27.7502 8.76023 29.8202 9.49023 31.6202 10.9502C33.4202 12.4102 34.5602 14.2802 35.0402 16.5602C35.5202 18.8402 35.2302 21.0102 34.1702 23.0702C33.1102 25.1302 31.5202 26.6402 29.4002 27.6002C31.0402 29.4002 32.5802 31.2802 34.0202 33.2402H39.7202V31.0202C39.7202 30.0202 39.9802 29.1002 40.5002 28.2602C41.0202 27.4202 41.7202 26.7702 42.6002 26.3102C43.4802 25.8502 44.4102 25.6602 45.3902 25.7402C46.3702 25.8202 47.2602 26.1602 48.0602 26.7602L48.9602 27.4202C49.0402 26.7402 49.0802 26.0802 49.0802 25.4402L49.0202 24.1802H49.0802C48.8402 20.0602 47.6202 16.2802 45.4202 12.8402C43.3002 9.44023 40.5002 6.76023 37.0202 4.80023C33.4202 2.76023 29.5602 1.74023 25.4402 1.74023H25.3802C21.2602 1.74023 17.4002 2.76023 13.8002 4.80023C10.3202 6.76023 7.50023 9.42023 5.34023 12.7802C3.18023 16.2602 1.98023 20.0602 1.74023 24.1802H1.80023L1.74023 25.4402C1.74023 28.4802 2.31023 31.4102 3.45023 34.2302C4.59023 37.0502 6.20023 39.5602 8.28023 41.7602C10.3602 43.9602 12.8002 45.7002 15.6002 46.9802C16.9202 47.5802 18.3002 48.0602 19.7402 48.4202ZM57.8402 41.8202H25.5002C24.9802 41.7002 24.5502 41.4402 24.2102 41.0402C23.8702 40.6402 23.7002 40.1802 23.7002 39.6602V39.5402C23.7002 38.9402 23.9102 38.4302 24.3302 38.0102C24.7502 37.5902 25.2602 37.3802 25.8602 37.3802H43.8002V31.0202C43.8002 30.5402 44.0102 30.1902 44.4302 29.9702C44.8502 29.7502 45.2602 29.7802 45.6602 30.0602L58.6202 39.6002C58.8202 39.7602 58.9602 39.9702 59.0402 40.2302C59.1202 40.4902 59.1102 40.7402 59.0102 40.9802C58.9102 41.2202 58.7502 41.4202 58.5302 41.5802C58.3102 41.7402 58.0802 41.8202 57.8402 41.8202ZM59.0402 48.0602V48.1802C59.0402 48.7802 58.8302 49.2902 58.4102 49.7102C57.9902 50.1302 57.4802 50.3402 56.8802 50.3402H38.9402V56.7002C38.9402 57.1802 38.7302 57.5302 38.3102 57.7502C37.8902 57.9702 37.4802 57.9402 37.0802 57.6602L24.1802 48.1202C23.9402 47.9602 23.7902 47.7502 23.7302 47.4902C23.6702 47.2302 23.6802 46.9802 23.7602 46.7402C23.8402 46.5002 23.9902 46.3002 24.2102 46.1402C24.4302 45.9802 24.6602 45.9002 24.9002 45.9002H57.2402C57.7602 46.0202 58.1902 46.2802 58.5302 46.6802C58.8702 47.0802 59.0402 47.5402 59.0402 48.0602Z" fill="#845EC2"/>
</svg>
