<svg width="183" height="164" viewBox="0 0 183 164" fill="none" xmlns="http://www.w3.org/2000/svg">
<path d="M91.5 51.25C97.8168 51.25 102.938 46.6609 102.938 41C102.938 35.3391 97.8168 30.75 91.5 30.75C85.1832 30.75 80.0625 35.3391 80.0625 41C80.0625 46.6609 85.1832 51.25 91.5 51.25Z" fill="#845EC2"/>
<path d="M91.5 92.25C97.8168 92.25 102.938 87.6609 102.938 82C102.938 76.3391 97.8168 71.75 91.5 71.75C85.1832 71.75 80.0625 76.3391 80.0625 82C80.0625 87.6609 85.1832 92.25 91.5 92.25Z" fill="#845EC2"/>
<path d="M91.5 133.25C97.8168 133.25 102.938 128.661 102.938 123C102.938 117.339 97.8168 112.75 91.5 112.75C85.1832 112.75 80.0625 117.339 80.0625 123C80.0625 128.661 85.1832 133.25 91.5 133.25Z" fill="#845EC2"/>
</svg>
