<svg width="60" height="60" viewBox="0 0 60 60" fill="none" xmlns="http://www.w3.org/2000/svg">
<path d="M35.6617 39.8443L31.3683 35.5865C29.395 33.6298 28.4083 32.6513 27.2723 32.2843C26.273 31.9613 25.1975 31.9613 24.1981 32.2843C23.0621 32.6513 22.0754 33.6298 20.1021 35.5865L10.1048 45.6555M35.6617 39.8443L36.515 38.9978C38.53 36.9998 39.5372 36.0008 40.6932 35.6363C41.7097 35.3155 42.802 35.328 43.811 35.672C44.958 36.0632 45.9422 37.085 47.9105 39.1287L50 41.2502M35.6617 39.8443L45.55 49.907M10.1048 45.6555C10 44.7665 10 43.6165 10 42V18C10 15.1997 10 13.7996 10.545 12.7301C11.0243 11.7892 11.7893 11.0243 12.7301 10.545C13.7996 10 15.1997 10 18 10H30M10.1048 45.6555C10.1816 46.3065 10.3146 46.8178 10.545 47.27C11.0243 48.2108 11.7893 48.9757 12.7301 49.455C13.7996 50 15.1997 50 18 50H42C44.8002 50 46.2005 50 47.27 49.455C48.2108 48.9757 48.9757 48.2108 49.455 47.27C50 46.2005 50 44.8002 50 42V30M40 7.5L46.25 13.75M46.25 13.75L52.5 20M46.25 13.75L52.5 7.5M46.25 13.75L40 20" stroke="black" stroke-width="5" stroke-linecap="round" stroke-linejoin="round"/>
</svg>
