<svg width="60" height="58" viewBox="0 0 60 58" fill="none" xmlns="http://www.w3.org/2000/svg">
<path d="M6.46986 20.3857H0V37.6126H6.46986V20.3857Z" fill="black"/>
<path d="M32.5966 20.3857H9.53479V37.6126H15.3701L32.5966 20.3857Z" fill="black"/>
<path d="M56.6892 20.3857H47.1732L29.9463 37.6126H56.6892V20.3857Z" fill="black"/>
<path d="M11.0481 12.6741C11.202 12.6869 11.3286 12.7141 11.4695 12.73C11.5476 12.7414 11.5869 12.7418 11.6966 12.7602L12.0029 12.8088L12.3099 12.8574L12.5842 12.8964L13.3411 12.9929C14.3686 13.0768 15.4482 13.0297 16.5083 12.7956C17.5674 12.5654 18.5969 12.1333 19.4698 11.5488C20.3463 10.9672 21.0586 10.2454 21.5857 9.50435C22.1184 8.76331 22.4629 7.99906 22.6979 7.29604C23.1568 5.87761 23.1573 4.68016 23.0708 3.86514C22.9828 3.04688 22.7988 2.59961 22.7988 2.59961C22.7988 2.59961 22.5009 2.97831 22.0111 3.55814C21.5197 4.13461 20.8213 4.91679 19.982 5.63172C19.5672 5.99141 19.1052 6.32114 18.6322 6.59578C18.1573 6.87078 17.6677 7.08395 17.1678 7.23264C16.1735 7.52821 15.0924 7.60003 13.826 7.49333L13.3464 7.43919L12.6938 7.37074L12.385 7.34055C12.2899 7.32984 12.1228 7.32695 11.9954 7.32106C11.7256 7.31516 11.4433 7.29315 11.1882 7.30747C10.1756 7.32443 9.12345 7.49489 8.12414 7.85518C7.12542 8.21487 6.19191 8.79278 5.48071 9.49881C4.75989 10.1997 4.28363 11.0165 4.00273 11.7693C3.72328 12.5291 3.62211 13.2311 3.60948 13.8345C3.59997 14.4397 3.67275 14.9479 3.76815 15.3555C3.8609 15.7626 3.97723 16.0689 4.06661 16.2731C4.15647 16.4774 4.22011 16.5794 4.22011 16.5794C4.22011 16.5794 4.4506 16.1528 4.8643 15.5292C5.2762 14.9122 5.90272 14.0861 6.69343 13.5027C7.07923 13.2039 7.51182 12.9914 7.94682 12.8508C8.38494 12.7098 8.8369 12.6335 9.34757 12.6056C9.85943 12.5799 10.4266 12.6035 11.0481 12.6741Z" fill="black"/>
<path d="M58.0478 2.2227L56.0958 0.270508L35.9804 20.386L18.7535 37.6129L2.54285 53.8237L4.49504 55.7763L6.44711 57.7287L26.5625 37.6129L43.7894 20.386L60 4.17514L58.0478 2.2227Z" fill="black"/>
</svg>
