<?xml version="1.0" ?><svg id="Icons" style="enable-background:new 0 0 32 32;" version="1.1" viewBox="0 0 32 32" xml:space="preserve" xmlns="http://www.w3.org/2000/svg" xmlns:xlink="http://www.w3.org/1999/xlink"><style type="text/css">
	.st0{fill:none;stroke:#000000;stroke-width:2;stroke-linecap:round;stroke-linejoin:round;stroke-miterlimit:10;}
	.st1{fill:none;stroke:#000000;stroke-width:2;stroke-linejoin:round;stroke-miterlimit:10;}
</style><path class="st0" d="M27,22.5c-0.87-0.83-2.27-0.83-3.14,0l0,0c-0.87,0.83-2.27,0.83-3.14,0l0,0c-0.87-0.83-2.27-0.83-3.14,0l0,0  c-0.87,0.83-2.27,0.83-3.14,0l0,0c-0.87-0.83-2.27-0.83-3.14,0l0,0c-0.87,0.83-2.27,0.83-3.14,0l0,0c-0.87-0.83-2.27-0.83-3.14,0"/><path class="st0" d="M29,26.5c-1.03-0.83-2.69-0.83-3.71,0l0,0c-1.03,0.83-2.69,0.83-3.71,0l0,0c-1.03-0.83-2.69-0.83-3.71,0l0,0  c-1.03,0.83-2.69,0.83-3.71,0l0,0c-1.03-0.83-2.69-0.83-3.71,0l0,0c-1.03,0.83-2.69,0.83-3.71,0l0,0c-1.03-0.83-2.69-0.83-3.71,0"/><line class="st0" x1="16" x2="16" y1="3" y2="6"/><line class="st0" x1="6.81" x2="8.93" y1="6.81" y2="8.93"/><line class="st0" x1="3" x2="6" y1="16" y2="16"/><line class="st0" x1="29" x2="26" y1="16" y2="16"/><line class="st0" x1="25.19" x2="23.07" y1="6.81" y2="8.93"/><path class="st0" d="M22.32,19c0.43-0.91,0.68-1.92,0.68-3c0-3.87-3.13-7-7-7s-7,3.13-7,7c0,1.08,0.25,2.09,0.68,3H22.32z"/></svg>