<svg width="66" height="28" viewBox="0 0 66 28" fill="none" xmlns="http://www.w3.org/2000/svg">
<path fill-rule="evenodd" clip-rule="evenodd" d="M8.76947 0.25C4.04704 0.25 0.21875 3.10231 0.21875 6.62242V21.5026C0.21875 25.022 4.01798 27.875 8.76947 27.875H57.0743C61.7967 27.875 65.625 25.0227 65.625 21.5026V6.62242C65.625 3.10303 61.8258 0.25 57.0743 0.25H8.76947ZM8.73453 2.375C5.60196 2.375 3.0625 4.28787 3.0625 6.60804V21.517C3.0625 23.8548 5.62854 25.75 8.73453 25.75H57.1092C60.2418 25.75 62.7812 23.8371 62.7812 21.517V6.60804C62.7812 4.27019 60.2152 2.375 57.1092 2.375H8.73453ZM14.4514 6.625C11.3026 6.625 8.75 8.50893 8.75 10.8876V17.2374C8.75 19.5916 11.292 21.5 14.4514 21.5H17.2674C20.4162 21.5 22.9688 19.6161 22.9688 17.2374V10.8876C22.9688 8.53342 20.4267 6.625 17.2674 6.625H14.4514ZM14.4345 8.75C12.8656 8.75 11.5938 9.6929 11.5938 10.8746V17.2504C11.5938 18.4238 12.8526 19.375 14.4345 19.375H17.2842C18.8531 19.375 20.125 18.4321 20.125 17.2504V10.8746C20.125 9.70121 18.8662 8.75 17.2842 8.75H14.4345ZM31.5 8.75V21.5H34.3438V8.75H40.0312V6.625H25.8125V8.75H31.5ZM48.5625 8.75V21.5H51.4062V8.75H57.0938V6.625H42.875V8.75H48.5625Z" fill="black"/>
</svg>
