<?xml version="1.0" ?><svg style="enable-background:new 0 0 128 128;" version="1.1" viewBox="0 0 128 128" xml:space="preserve" xmlns="http://www.w3.org/2000/svg" xmlns:xlink="http://www.w3.org/1999/xlink"><g id="Layer_1"/><g id="refrigerator"/><g id="washer"/><g id="tv"/><g id="microwawe"/><g id="vacuum_cleaner"/><g id="Gift"/><g id="umbrella"/><g id="rocket"/><g id="basket"/><g id="shopping"/><g id="email"/><g id="message"/><g id="delivery"/><g id="store"/><g id="label"/><g id="phone"/><g id="imac"/><g id="laptop"/><g id="heart_like"/><g id="game"/><g id="wallet"/><g id="camera"/><g id="battery"/><g id="shoes"/><g id="t-shirt"/><g id="pencil"/><g id="people"/><g id="statistics"/><g id="blog"/><g id="rock"/><g id="like"/><g id="dislike"/><g id="speaker"/><g id="pc"><g><g><path d="M76,77.98H12c-3.309,0-6-2.691-6-6v-36c0-3.309,2.691-6,6-6h64c3.309,0,6,2.691,6,6v36     C82,75.289,79.309,77.98,76,77.98z M12,33.98c-1.103,0-2,0.897-2,2v36c0,1.103,0.897,2,2,2h64c1.103,0,2-0.897,2-2v-36     c0-1.103-0.897-2-2-2H12z" style="fill:#505070;"/></g><g><path d="M44,92c-1.104,0-2-0.896-2-2V76c0-1.104,0.896-2,2-2s2,0.896,2,2v14C46,91.104,45.104,92,44,92z" style="fill:#505070;"/></g><g><path d="M56,92H32c-1.104,0-2-0.896-2-2s0.896-2,2-2h24c1.104,0,2,0.896,2,2S57.104,92,56,92z" style="fill:#505070;"/></g><g><path d="M116,92h-16c-3.309,0-6-2.691-6-6V36c0-3.309,2.691-6,6-6h16c3.309,0,6,2.691,6,6v50     C122,89.309,119.309,92,116,92z M100,34c-1.103,0-2,0.897-2,2v50c0,1.103,0.897,2,2,2h16c1.103,0,2-0.897,2-2V36     c0-1.103-0.897-2-2-2H100z" style="fill:#505070;"/></g><g><path d="M120,46H96c-1.104,0-2-0.896-2-2s0.896-2,2-2h24c1.104,0,2,0.896,2,2S121.104,46,120,46z" style="fill:#505070;"/></g><g><path d="M108,80c-2.206,0-4-1.794-4-4s1.794-4,4-4s4,1.794,4,4S110.206,80,108,80z" style="fill:#505070;"/></g></g></g><g id="glasses"/><g id="headphones"/><g id="player"/><g id="book"/><g id="transfer"/><g id="mouse"/><g id="package"/><g id="exellent"/><g id="card"/><g id="induction"/><g id="revers_camera"/><g id="flesh_drive"/><g id="time"/><g id="sale"/><g id="tablet"/><g id="search"/></svg>