<svg width="60" height="60" viewBox="0 0 60 60" fill="none" xmlns="http://www.w3.org/2000/svg">
<path d="M7.5 22.44C7.5 10.1369 10.1369 7.5 22.44 7.5H37.56C49.863 7.5 52.5 10.1369 52.5 22.44V37.56C52.5 49.863 49.863 52.5 37.56 52.5H22.44C10.1369 52.5 7.5 49.863 7.5 37.56V22.44Z" stroke="#845EC2" stroke-width="5"/>
<path d="M42.5112 41.2552L31.8197 30.5637C23.1202 21.8642 19.391 21.8642 10.6914 30.5637L7.5 33.7552" stroke="#845EC2" stroke-width="5" stroke-linecap="round"/>
<path d="M52.5001 34.1754C47.2671 30.1666 43.6946 30.7296 37.9951 35.8646" stroke="#845EC2" stroke-width="5" stroke-linecap="round"/>
<path d="M42.5 20C42.5 21.3807 41.3807 22.5 40 22.5C38.6193 22.5 37.5 21.3807 37.5 20C37.5 18.6193 38.6193 17.5 40 17.5C41.3807 17.5 42.5 18.6193 42.5 20Z" stroke="#845EC2" stroke-width="5"/>
</svg>
