<svg width="215" height="130" viewBox="0 0 215 130" fill="none" xmlns="http://www.w3.org/2000/svg">
<path d="M214 48.5V85.215C214 108.125 166.097 130 107 130C47.9031 130 0 108.125 0 85.215V48.5C0 55.1821 4.11538 61.3502 11.3585 66.6372C28.9723 79.5609 65.1877 87.785 107 87.785C148.812 87.785 185.028 79.5609 202.642 66.6372C209.885 61.3502 214 55.1821 214 48.5Z" fill="#D3A400"/>
<path d="M214.343 49.6504C214.343 57.6472 210.221 65.0289 202.966 71.356C185.324 86.8223 149.051 96.6646 107.171 96.6646C65.2921 96.6646 29.0187 86.8223 11.3767 71.356C4.12198 65.0289 0 57.6472 0 49.6504C0 22.2329 47.9798 0 107.171 0C136.85 0 163.56 5.53624 183.016 14.4997C202.307 23.551 214.343 35.9416 214.343 49.6504Z" fill="#FFC700"/>
<g filter="url(#filter0_i_2440_166)">
<path d="M83.4716 81.5V11.6818H112.312C117.54 11.6818 122.051 12.7045 125.847 14.75C129.665 16.7727 132.608 19.6023 134.676 23.2386C136.744 26.8523 137.778 31.0568 137.778 35.8523C137.778 40.6705 136.722 44.8864 134.608 48.5C132.517 52.0909 129.528 54.875 125.642 56.8523C121.756 58.8295 117.142 59.8182 111.801 59.8182H94.0057V46.5227H108.665C111.21 46.5227 113.335 46.0795 115.04 45.1932C116.767 44.3068 118.074 43.0682 118.96 41.4773C119.847 39.8636 120.29 37.9886 120.29 35.8523C120.29 33.6932 119.847 31.8295 118.96 30.2614C118.074 28.6705 116.767 27.4432 115.04 26.5795C113.313 25.7159 111.188 25.2841 108.665 25.2841H100.347V81.5H83.4716Z" fill="#D3A400"/>
</g>
<defs>
<filter id="filter0_i_2440_166" x="83.4717" y="11.6816" width="54.3066" height="69.8184" filterUnits="userSpaceOnUse" color-interpolation-filters="sRGB">
<feFlood flood-opacity="0" result="BackgroundImageFix"/>
<feBlend mode="normal" in="SourceGraphic" in2="BackgroundImageFix" result="shape"/>
<feColorMatrix in="SourceAlpha" type="matrix" values="0 0 0 0 0 0 0 0 0 0 0 0 0 0 0 0 0 0 127 0" result="hardAlpha"/>
<feOffset dy="4"/>
<feComposite in2="hardAlpha" operator="arithmetic" k2="-1" k3="1"/>
<feColorMatrix type="matrix" values="0 0 0 0 0 0 0 0 0 0 0 0 0 0 0 0 0 0 0.25 0"/>
<feBlend mode="normal" in2="shape" result="effect1_innerShadow_2440_166"/>
</filter>
</defs>
</svg>
