<?xml version="1.0" ?><!DOCTYPE svg  PUBLIC '-//W3C//DTD SVG 1.1//EN'  'http://www.w3.org/Graphics/SVG/1.1/DTD/svg11.dtd'><svg enable-background="new 0 0 300 300" height="300px" id="Layer_1" version="1.1" viewBox="0 0 300 300" width="300px" xml:space="preserve" xmlns="http://www.w3.org/2000/svg" xmlns:xlink="http://www.w3.org/1999/xlink"><line fill="none" stroke="#000000" stroke-linecap="round" stroke-linejoin="round" stroke-miterlimit="10" stroke-width="6" x1="69" x2="212" y1="132" y2="132"/><line fill="none" stroke="#000000" stroke-linecap="round" stroke-linejoin="round" stroke-miterlimit="10" stroke-width="6" x1="127" x2="183" y1="181" y2="181"/><line fill="none" stroke="#000000" stroke-linecap="round" stroke-linejoin="round" stroke-miterlimit="10" stroke-width="6" x1="127" x2="183" y1="155" y2="155"/><path d="  M183,195v-82.345c0-9.918-7.704-17.96-17.623-17.96c-5.876,0-11.301,2.822-14.578,7.184c-2.254,3.001-3.799,6.733-3.799,10.776V117" fill="none" stroke="#000000" stroke-linecap="round" stroke-linejoin="round" stroke-miterlimit="10" stroke-width="6"/><path d="  M124,195v-82.345c0-9.918-7.658-17.96-17.577-17.96c-5.876,0-11.324,2.822-14.601,7.184C89.567,104.88,88,108.612,88,112.655V117" fill="none" stroke="#000000" stroke-linecap="round" stroke-linejoin="round" stroke-miterlimit="10" stroke-width="6"/><path d="  M235.732,202.818c0,6.271-9.576,11.366-21.391,11.366s-21.326-11.349-21.326-11.349s-9.574,11.349-21.391,11.349  c-11.813,0-21.391-11.362-21.391-11.362s-9.631,11.362-21.443,11.362c-11.814,0-21.326-11.349-21.326-11.349  s-9.576,11.349-21.392,11.349c-11.814,0-21.391-5.088-21.391-11.362" fill="none" stroke="#000000" stroke-linecap="round" stroke-linejoin="round" stroke-miterlimit="10" stroke-width="6"/></svg>