<svg width="213" height="213" viewBox="0 0 213 213" fill="none" xmlns="http://www.w3.org/2000/svg">
<path d="M107.354 121.269C107.156 121.269 106.86 121.269 106.663 121.269C106.366 121.269 105.971 121.269 105.675 121.269C83.257 120.578 66.4683 103.098 66.4683 81.5687C66.4683 59.6446 84.3433 41.7695 106.268 41.7695C128.192 41.7695 146.067 59.6446 146.067 81.5687C145.968 103.197 129.081 120.578 107.65 121.269C107.453 121.269 107.453 121.269 107.354 121.269ZM106.169 56.4843C92.3429 56.4843 81.1831 67.7427 81.1831 81.4699C81.1831 94.9998 91.7504 105.962 105.181 106.456C105.478 106.357 106.465 106.357 107.453 106.456C120.686 105.764 131.056 94.9011 131.154 81.4699C131.154 67.7427 119.995 56.4843 106.169 56.4843Z" fill="#845EC2"/>
<path d="M106.172 212.331C79.6064 212.331 54.2258 202.455 34.5731 184.482C32.7955 182.901 32.0055 180.531 32.203 178.26C33.4868 166.508 40.7948 155.546 52.942 147.448C82.3716 127.894 130.071 127.894 159.402 147.448C171.549 155.645 178.857 166.508 180.141 178.26C180.437 180.63 179.549 182.901 177.771 184.482C158.118 202.455 132.738 212.331 106.172 212.331ZM47.7078 176.285C64.1015 190.012 84.7418 197.518 106.172 197.518C127.602 197.518 148.243 190.012 164.636 176.285C162.859 170.261 158.118 164.434 151.106 159.694C126.812 143.497 85.6306 143.497 61.1388 159.694C54.1271 164.434 49.4855 170.261 47.7078 176.285Z" fill="#845EC2"/>
<path d="M106.164 212.328C47.6009 212.328 0 164.727 0 106.164C0 47.6009 47.6009 0 106.164 0C164.727 0 212.328 47.6009 212.328 106.164C212.328 164.727 164.727 212.328 106.164 212.328ZM106.164 14.8136C55.7978 14.8136 14.8136 55.7978 14.8136 106.164C14.8136 156.53 55.7978 197.514 106.164 197.514C156.53 197.514 197.514 156.53 197.514 106.164C197.514 55.7978 156.53 14.8136 106.164 14.8136Z" fill="#845EC2"/>
</svg>
