<svg width="484" height="485" viewBox="0 0 484 485" fill="none" xmlns="http://www.w3.org/2000/svg">
<g filter="url(#filter0_d_2668_19)">
<path d="M462.825 39.1449V138.731C462.825 144.883 457.838 149.869 451.686 149.869C447.259 149.869 443.276 147.235 441.371 143.239C405.767 68.586 329.597 17 241.376 17C126.548 17 32.132 104.399 21.0215 216.304" stroke="#845EC2" stroke-width="33.2173" stroke-linecap="round" stroke-linejoin="round"/>
<path d="M108.455 335.886V180.731C108.455 173.393 114.404 167.444 121.742 167.444H147.714C152.23 167.444 156.437 165.15 158.883 161.354L190.896 111.669C193.342 107.873 197.548 105.579 202.066 105.579H280.583C285.1 105.579 289.306 107.873 291.753 111.669L323.765 161.354C326.212 165.15 330.417 167.444 334.935 167.444H360.907C368.245 167.444 374.193 173.393 374.193 180.731V335.886C374.193 343.225 368.245 349.173 360.907 349.173H121.742C114.404 349.173 108.455 343.225 108.455 335.886Z" stroke="#845EC2" stroke-width="33.2173" stroke-linecap="round" stroke-linejoin="round"/>
<path d="M241.324 282.739C265.785 282.739 285.614 262.91 285.614 238.449C285.614 213.988 265.785 194.159 241.324 194.159C216.863 194.159 197.034 213.988 197.034 238.449C197.034 262.91 216.863 282.739 241.324 282.739Z" stroke="#845EC2" stroke-width="33.2173" stroke-linecap="round" stroke-linejoin="round"/>
<path d="M21 437.753V338.167C21 332.015 25.9866 327.028 32.138 327.028C36.5652 327.028 40.5493 329.664 42.4551 333.659C78.0582 408.311 154.229 459.898 242.449 459.898C357.277 459.898 451.694 372.498 462.804 260.594" stroke="#845EC2" stroke-width="33.2173" stroke-linecap="round" stroke-linejoin="round"/>
</g>
<defs>
<filter id="filter0_d_2668_19" x="0.391602" y="0.391602" width="483.042" height="484.114" filterUnits="userSpaceOnUse" color-interpolation-filters="sRGB">
<feFlood flood-opacity="0" result="BackgroundImageFix"/>
<feColorMatrix in="SourceAlpha" type="matrix" values="0 0 0 0 0 0 0 0 0 0 0 0 0 0 0 0 0 0 127 0" result="hardAlpha"/>
<feOffset dy="4"/>
<feGaussianBlur stdDeviation="2"/>
<feComposite in2="hardAlpha" operator="out"/>
<feColorMatrix type="matrix" values="0 0 0 0 0 0 0 0 0 0 0 0 0 0 0 0 0 0 0.25 0"/>
<feBlend mode="normal" in2="BackgroundImageFix" result="effect1_dropShadow_2668_19"/>
<feBlend mode="normal" in="SourceGraphic" in2="effect1_dropShadow_2668_19" result="shape"/>
</filter>
</defs>
</svg>
