<svg width="476" height="477" viewBox="0 0 476 477" fill="none" xmlns="http://www.w3.org/2000/svg">
<path d="M17 39.1464V138.74C17 144.892 21.9869 149.879 28.1388 149.879C32.5663 149.879 36.5506 147.244 38.4566 143.248C74.0622 68.5896 150.238 17 238.465 17C353.3 17 447.724 104.405 458.835 216.318" stroke="#845EC2" stroke-width="33.2196" stroke-linecap="round" stroke-linejoin="round"/>
<path d="M458.835 437.782V338.189C458.835 332.037 453.847 327.05 447.695 327.05C443.268 327.05 439.284 329.685 437.379 333.68C401.772 408.338 325.597 459.928 237.371 459.928C122.534 459.928 28.1115 372.523 17 260.61" stroke="#845EC2" stroke-width="33.2196" stroke-linecap="round" stroke-linejoin="round"/>
<path d="M104.461 335.909V180.743C104.461 173.404 110.41 167.455 117.749 167.455H143.723C148.239 167.455 152.446 165.161 154.893 161.365L186.908 111.677C189.354 107.88 193.56 105.586 198.078 105.586H276.601C281.118 105.586 285.324 107.88 287.771 111.677L319.786 161.365C322.233 165.161 326.439 167.455 330.957 167.455H356.93C364.269 167.455 370.218 173.404 370.218 180.743V335.909C370.218 343.248 364.269 349.197 356.93 349.197H117.749C110.41 349.197 104.461 343.248 104.461 335.909Z" stroke="#845EC2" stroke-width="33.2196" stroke-linecap="round" stroke-linejoin="round"/>
<path d="M237.34 282.757C261.803 282.757 281.633 262.927 281.633 238.464C281.633 214.001 261.803 194.171 237.34 194.171C212.877 194.171 193.047 214.001 193.047 238.464C193.047 262.927 212.877 282.757 237.34 282.757Z" stroke="#845EC2" stroke-width="33.2196" stroke-linecap="round" stroke-linejoin="round"/>
</svg>
